<svg width="119" height="70" viewBox="0 0 119 70" fill="none" xmlns="http://www.w3.org/2000/svg">
<path d="M117.49 43.6799C117.49 43.6799 101.92 64.28 68.6996 68C78.0996 63.93 84.6896 54.5799 84.6896 43.6799C84.6896 32.7799 78.1096 23.4301 68.6996 19.3601C101.92 23.0801 117.49 43.6799 117.49 43.6799ZM31.7096 43.6799C31.7096 32.8099 38.2596 23.4699 47.6296 19.3899C15.0496 23.1999 1.84961 43.6799 1.84961 43.6799C1.84961 43.6799 15.0496 64.16 47.6296 67.97C38.2596 63.89 31.7096 54.5499 31.7096 43.6799ZM75.7096 43.6799C75.7096 53.3499 67.8696 61.1899 58.1996 61.1899C48.5296 61.1899 40.6896 53.3499 40.6896 43.6799C40.6896 34.0099 48.5296 26.1699 58.1996 26.1699C67.8696 26.1699 75.7096 34.0099 75.7096 43.6799ZM65.0397 43.6799C65.0397 39.8999 61.9796 36.8401 58.1996 36.8401C54.4196 36.8401 51.3596 39.8999 51.3596 43.6799C51.3596 47.4599 54.4196 50.52 58.1996 50.52C61.9796 50.52 65.0397 47.4599 65.0397 43.6799ZM70.0397 33.21C70.0397 31.83 68.9197 30.71 67.5397 30.71C66.1597 30.71 65.0397 31.83 65.0397 33.21C65.0397 34.59 66.1597 35.71 67.5397 35.71C68.9197 35.71 70.0397 34.59 70.0397 33.21ZM26.3196 17.52C28.4596 16.84 30.6897 16.2099 33.0297 15.6499L22.3896 5.01001C20.0696 5.57001 17.8196 6.19009 15.6396 6.84009L26.3196 17.52ZM57.2997 1C56.5797 1 55.8697 1.01002 55.1697 1.02002V12.8999C56.0697 12.8799 56.9596 12.8501 57.8796 12.8501C59.0196 12.8501 60.1296 12.8799 61.2396 12.9099V1.05005C59.9396 1.02005 58.6297 1 57.3097 1H57.2997ZM93.7396 5.27002L83.2997 15.71C85.6397 16.26 87.8797 16.88 90.0397 17.55L100.49 7.1001C98.2996 6.4501 96.0496 5.84002 93.7396 5.27002Z" stroke="white" stroke-width="1.5" stroke-miterlimit="10"/>
</svg>
