<svg width="47" height="26" viewBox="0 0 47 26" fill="none" xmlns="http://www.w3.org/2000/svg">
<path d="M46.9699 24.48H0.419922V26H46.9699V24.48Z" fill="#058340"/>
<path d="M23.72 21.79L8.54004 13.02L9.05005 12.14L23.72 20.62L38.3901 12.14L38.9 13.02L23.72 21.79Z" fill="#058340"/>
<path d="M23.72 17.74L8.54004 8.96998L9.05005 8.09998L23.72 16.57L38.3901 8.09998L38.9 8.96998L23.72 17.74Z" fill="#058340"/>
<path d="M23.72 13.69L8.54004 4.91999L9.05005 4.04999L23.72 12.52L38.3901 4.04999L38.9 4.91999L23.72 13.69Z" fill="#058340"/>
<path d="M23.72 9.64L8.54004 0.879999L9.05005 0L23.72 8.47L38.3901 0L38.9 0.879999L23.72 9.64Z" fill="#058340"/>
</svg>
