<?xml version="1.0" encoding="UTF-8"?>
<svg id="Layer_1" data-name="Layer 1" xmlns="http://www.w3.org/2000/svg" viewBox="0 0 1182 190">
  <defs>
    <style>
      .cls-1 {
        fill: none;
        stroke: #000;
        stroke-miterlimit: 10;
      }
    </style>
  </defs>
  <polygon class="cls-1" points="106.08 67.51 35.36 67.51 0 128.76 35.36 190 106.08 190 141.44 128.76 106.08 67.51"/>
  <polygon class="cls-1" points="219.63 0 148.9 0 113.54 61.24 148.9 122.49 219.63 122.49 254.99 61.24 219.63 0"/>
  <polygon class="cls-1" points="338.54 67.51 267.82 67.51 232.46 128.76 267.82 190 338.54 190 373.9 128.76 338.54 67.51"/>
  <polygon class="cls-1" points="452.08 0 381.36 0 346 61.24 381.36 122.49 452.08 122.49 487.44 61.24 452.08 0"/>
  <polygon class="cls-1" points="571 67.51 500.27 67.51 464.91 128.76 500.27 190 571 190 606.36 128.76 571 67.51"/>
  <polygon class="cls-1" points="684.54 0 613.82 0 578.46 61.24 613.82 122.49 684.54 122.49 719.9 61.24 684.54 0"/>
  <polygon class="cls-1" points="800.64 67.51 729.92 67.51 694.56 128.76 729.92 190 800.64 190 836 128.76 800.64 67.51"/>
  <polygon class="cls-1" points="914.18 0 843.46 0 808.1 61.24 843.46 122.49 914.18 122.49 949.54 61.24 914.18 0"/>
  <polygon class="cls-1" points="1033.1 67.51 962.37 67.51 927.01 128.76 962.37 190 1033.1 190 1068.46 128.76 1033.1 67.51"/>
  <polygon class="cls-1" points="1146.64 0 1075.92 0 1040.56 61.24 1075.92 122.49 1146.64 122.49 1182 61.24 1146.64 0"/>
</svg>