<svg width="85" height="88" viewBox="0 0 85 88" fill="none" xmlns="http://www.w3.org/2000/svg">
<path d="M6.05033 73.71L8.36027 80.19C10.6003 86.45 20.3702 88.6799 30.1902 85.1599C40.0102 81.6399 46.1703 73.72 43.9303 67.46L41.6203 60.98M6.05033 73.71C8.28033 79.97 18.0603 82.2 27.8803 78.68V78.67C37.7003 75.16 43.8503 67.23 41.6203 60.97C39.3903 54.71 29.6103 52.49 19.7903 56C9.97032 59.52 3.82033 67.45 6.05033 73.71ZM57.1003 32.5401L50.7203 36.4199C44.5503 40.1699 44.3202 51.0901 50.2102 60.8001C56.1002 70.5101 65.8703 75.3501 72.0403 71.5901L78.4203 67.71M57.1003 32.5401C50.9303 36.2901 50.7102 47.2099 56.5902 56.9199C62.4802 66.6299 72.2503 71.46 78.4203 67.71M57.1003 32.5401C63.2703 28.7901 73.0403 33.6201 78.9303 43.3301C84.8103 53.0401 84.5903 63.96 78.4203 67.71M4.17033 37.6399L10.1203 43.6001C15.8703 49.3601 27.8603 46.6801 36.9003 37.6201C45.9403 28.5501 48.6103 16.5401 42.8503 10.7801L36.9003 4.8201M4.17033 37.6399C9.92033 43.3999 21.9102 40.7199 30.9502 31.6599C39.9902 22.5999 42.6503 10.5801 36.9003 4.8201M4.17033 37.6399C-1.57967 31.8799 1.09028 19.8701 10.1203 10.8101C19.1603 1.75008 31.1503 -0.929905 36.9003 4.8201" stroke="white" stroke-width="2" stroke-linejoin="round"/>
</svg>
