<svg width="86" height="88" viewBox="0 0 86 88" fill="none" xmlns="http://www.w3.org/2000/svg">
<path d="M53.7603 21.96L65.7703 31.5101M56.1902 7.33015L53.7603 21.95L41.2703 26.5201M11.1302 64.1202L14.8903 67.91M41.2803 60.3302H56.3502C63.8902 60.3302 63.8902 50.8702 56.3502 50.8702H46.3903C44.8203 50.8702 41.8803 47.0802 39.3903 47.0802H29.9702C27.4202 47.0802 24.2603 49.1602 22.4303 50.8702C19.6103 53.7102 14.8903 58.44 14.8903 58.44M29.9702 73.5802C30.6902 72.8502 31.4302 71.69 33.7402 71.69H60.1202C62.2102 71.69 73.7302 60.09 75.2002 58.44C76.6102 56.86 82.8802 47.3901 84.6202 43.3001C83.5302 41.8201 80.5802 40.59 77.0902 41.41C73.7602 42.19 71.8003 44.5901 69.5503 48.9801L60.9103 53.4801M72.9303 13.8702L58.4303 2.19002C57.9803 1.83002 57.2103 1.65998 56.5403 1.89998L39.4502 8.58015C38.6802 8.74015 38.0503 9.34 37.9203 10.17L35.2402 28.3001C35.1302 29.1101 35.2602 29.95 35.8502 30.41L50.3502 42.0902C50.9002 42.5402 51.3403 42.8202 51.8903 42.6102L69.4303 35.7601C70.3703 35.3901 70.7703 34.9902 70.9003 34.1202L73.6302 15.65C73.7102 15.1 73.4403 14.2702 72.9303 13.8602V13.8702ZM24.3103 86.8302L33.7302 77.3702L11.1202 54.66L1.7002 64.1202L24.3103 86.8302Z" stroke="white" stroke-width="2" stroke-linejoin="round"/>
</svg>
