<svg width="82" height="88" viewBox="0 0 82 88" fill="none" xmlns="http://www.w3.org/2000/svg">
<path d="M59.3798 57.7C59.9098 55 62.2197 52.97 64.9897 52.97C68.1497 52.97 70.7197 55.6199 70.7197 58.8999C70.7197 62.1799 68.1597 64.8201 64.9897 64.8201M62.0298 71.26V74.51C62.0298 74.9 62.3297 75.21 62.7097 75.21H67.2798C67.6498 75.21 67.9597 74.9 67.9597 74.51V70.6699C69.0197 70.3899 70.0297 69.9499 70.9497 69.3799L73.5797 72.1001C73.8397 72.3701 74.2698 72.3701 74.5298 72.1001L77.7598 68.76C78.0298 68.49 78.0298 68.04 77.7598 67.77L75.1298 65.05C75.6698 64.1 76.0898 63.06 76.3698 61.96H80.0997C80.4697 61.96 80.7798 61.64 80.7798 61.26V56.53C80.7798 56.14 80.4797 55.8301 80.0997 55.8301H76.3597C76.0897 54.7301 75.6598 53.7 75.1198 52.74L77.7598 50.01C78.0298 49.74 78.0298 49.29 77.7598 49.02L74.5298 45.6799C74.2698 45.4099 73.8397 45.4099 73.5797 45.6799L70.9298 48.4199C70.0098 47.8599 69.0097 47.4299 67.9497 47.1399V43.27C67.9497 42.88 67.6498 42.5701 67.2698 42.5701H62.6997C62.3297 42.5701 62.0198 42.88 62.0198 43.27V47.1399C60.9598 47.4199 59.9598 47.8599 59.0398 48.4199M57.6198 44.4299V30.8401M62.2798 17.3L64.9998 14.6899L77.9998 30.1201H72.3497V42.26M40.9998 1.81006L60.2698 23.8601H51.5997V42.5801M17.0098 64.8201C13.8398 64.8201 11.2798 62.1699 11.2798 58.8999C11.2798 55.6299 13.8398 52.97 17.0098 52.97C19.7798 52.97 22.0898 55 22.6198 57.7M22.9497 48.4099C22.0297 47.8499 21.0297 47.4199 19.9697 47.1299V43.26C19.9697 42.87 19.6698 42.5601 19.2998 42.5601H14.7297C14.3597 42.5601 14.0498 42.87 14.0498 43.26V47.1299C12.9898 47.4099 11.9897 47.8499 11.0697 48.4099L8.4198 45.6699C8.1498 45.3999 7.72972 45.3999 7.45972 45.6699L4.22974 49.01C3.95974 49.28 3.95974 49.73 4.22974 50L6.86975 52.73C6.32975 53.68 5.90976 54.7201 5.62976 55.8201H1.89978C1.51978 55.8201 1.21973 56.13 1.21973 56.52V61.25C1.21973 61.63 1.51978 61.95 1.89978 61.95H5.61975C5.89975 63.05 6.31974 64.09 6.85974 65.04L4.21973 67.76C3.94973 68.03 3.94973 68.48 4.21973 68.75L7.44971 72.0901C7.71971 72.3601 8.13979 72.3601 8.40979 72.0901L11.0398 69.3701C11.9698 69.9301 12.9698 70.3699 14.0398 70.6599V74.5C14.0398 74.89 14.3397 75.2 14.7197 75.2H19.2898C19.6598 75.2 19.9597 74.89 19.9597 74.5V71.25M24.3798 44.4299V30.8401M19.7197 17.3L16.9998 14.6899L3.98975 30.1201H9.63977V42.26M30.3898 42.5801V23.8601H21.7297L40.9497 1.78003L60.2598 23.8601H51.5897V42.5801M40.8998 72.75C36.6098 72.75 33.1398 69.16 33.1398 64.72C33.1398 60.28 36.6098 56.6899 40.8998 56.6899C45.1898 56.6899 48.6598 60.28 48.6598 64.72C48.6598 69.16 45.1898 72.75 40.8998 72.75ZM61.3698 60.55H56.3098C55.9398 59.07 55.3598 57.6601 54.6298 56.3701L58.2097 52.6599C58.5697 52.2899 58.5697 51.6901 58.2097 51.3201L53.8297 46.79C53.4697 46.42 52.8898 46.42 52.5298 46.79L48.9397 50.5C47.6897 49.75 46.3398 49.16 44.8998 48.77V43.52C44.8998 43 44.4897 42.5701 43.9797 42.5701H37.7798C37.2798 42.5701 36.8597 42.99 36.8597 43.52V48.77C35.4197 49.15 34.0697 49.74 32.8197 50.5L29.2297 46.79C28.8697 46.42 28.2898 46.42 27.9298 46.79L23.5498 51.3201C23.1898 51.6901 23.1898 52.2899 23.5498 52.6599L27.1298 56.3701C26.3998 57.6601 25.8197 59.06 25.4497 60.55H20.3898C19.8798 60.55 19.4697 60.98 19.4697 61.5V67.9099C19.4697 68.4299 19.8798 68.8601 20.3898 68.8601H25.4397C25.8097 70.3501 26.3798 71.76 27.1198 73.05L23.5498 76.74C23.1898 77.11 23.1898 77.7101 23.5498 78.0801L27.9298 82.6101C28.2898 82.9801 28.8697 82.9801 29.2297 82.6101L32.7898 78.9199C34.0398 79.6899 35.4097 80.2799 36.8497 80.6599V85.8701C36.8497 86.3901 37.2598 86.8201 37.7698 86.8201H43.9697C44.4697 86.8201 44.8898 86.3901 44.8898 85.8701V80.6599C46.3298 80.2799 47.6997 79.6799 48.9497 78.9199L52.5098 82.6101C52.8698 82.9801 53.4498 82.9801 53.8098 82.6101L58.1897 78.0801C58.5497 77.7101 58.5497 77.11 58.1897 76.74L54.6198 73.05C55.3498 71.75 55.9198 70.3401 56.2998 68.8601H61.3497C61.8597 68.8601 62.2698 68.4399 62.2698 67.9099V61.5C62.2698 60.98 61.8597 60.55 61.3497 60.55H61.3698Z" stroke="white" stroke-width="2" stroke-linejoin="round"/>
</svg>
