<svg width="92" height="88" viewBox="0 0 92 88" fill="none" xmlns="http://www.w3.org/2000/svg">
<path d="M12.33 66.49V46.1499M27.4999 18.4299C27.4999 14.5799 24.2099 9.13004 16.1199 11.04C11.2199 12.2 5.84991 12.5099 2.84991 9.18994M36.9799 73.8899V79.4399M14.2299 73.8899V79.4399M21.8099 73.8899V79.4399M29.39 73.8899V79.4399M40.77 66.49H6.63995V86.8301M44.5599 55.3999H54.0399M76.7899 73.8899V79.4399M54.0399 73.8899V79.4399M61.6199 73.8899V79.4399M69.2 73.8899V79.4399M0.959961 86.8301H91.96M86.27 55.3999H69.21M86.27 55.3999V86.8301M86.27 55.3999L90.0599 51.7V46.1499H40.77V53.54L44.5599 55.3899V86.8201M84.3699 31.3701V44.3101M71.0999 31.3701H76.7899M54.0399 9.17993H61.6199M71.0999 22.1201H76.7899M76.7899 42.46V5.48999C76.7899 3.44999 75.0899 1.79004 72.9999 1.79004H61.6199C59.5299 1.79004 57.83 3.44999 57.83 5.48999V9.18994M67.3099 46.1599V23.98C67.3099 19.56 64.2799 16.49 61.6199 14.74H54.0399C51.3799 16.5 48.3499 19.57 48.3499 23.98V46.1599M21.8099 66.49H33.1899V22.1201H21.8099V66.49Z" stroke="white" stroke-width="2" stroke-linejoin="round"/>
</svg>
