<svg width="74" height="75" viewBox="0 0 74 75" fill="none" xmlns="http://www.w3.org/2000/svg">
<path d="M57.9603 22.46C62.1003 27.83 64.5703 34.5401 64.5703 41.8301C64.5703 59.3601 50.3103 73.6201 32.7803 73.6201C15.2503 73.6201 0.990234 59.3601 0.990234 41.8301C0.990234 24.3001 15.2503 10.04 32.7803 10.04C40.0703 10.04 46.7903 12.5099 52.1503 16.6499L47.1302 21.6699C43.0802 18.7799 38.1303 17.0701 32.7803 17.0701C19.1303 17.0701 8.03027 28.1701 8.03027 41.8201C8.03027 55.4701 19.1303 66.5701 32.7803 66.5701C46.4303 66.5701 57.5303 55.4701 57.5303 41.8201C57.5303 36.4701 55.8202 31.52 52.9302 27.47L57.9503 22.45L57.9603 22.46ZM49.2302 31.1899L45.5103 34.9099C46.6303 36.9699 47.2703 39.3301 47.2703 41.8401C47.2703 49.8301 40.7703 56.3301 32.7803 56.3301C24.7903 56.3301 18.2902 49.8301 18.2902 41.8401C18.2902 33.8501 24.7903 27.3501 32.7803 27.3501C35.2903 27.3501 37.6503 27.9901 39.7103 29.1101L43.4302 25.3899C40.3702 23.3999 36.7102 22.24 32.7902 22.24C21.9702 22.24 13.2003 31.0101 13.2003 41.8301C13.2003 52.6501 21.9702 61.4199 32.7902 61.4199C43.6102 61.4199 52.3802 52.6501 52.3802 41.8301C52.3802 37.9101 51.2202 34.2499 49.2302 31.1899ZM32.7902 33.45C28.1602 33.45 24.4102 37.2001 24.4102 41.8301C24.4102 46.4601 28.1602 50.21 32.7902 50.21C37.4202 50.21 41.1702 46.4601 41.1702 41.8301C41.1702 37.2001 37.4202 33.45 32.7902 33.45ZM73.0002 8.76001L67.4102 7.07007L66.0303 1.38989L55.7603 11.1101L56.8702 15.6799L31.7502 40.8L33.8203 42.8701L59.2603 17.4299L62.7302 18.48L73.0002 8.76001Z" stroke="white" stroke-miterlimit="10"/>
</svg>
