<svg width="267" height="98" viewBox="0 0 267 98" fill="none" xmlns="http://www.w3.org/2000/svg">
<path d="M7.37065 82.9786C7.88605 82.6283 8.58158 82.4482 9.43724 82.4482C10.3579 82.4482 11.3737 82.6633 12.4545 83.0787L12.5096 83.0987L13.1351 81.2272L13.085 81.2072C11.8541 80.7168 10.6482 80.4666 9.50229 80.4666C8.04618 80.4666 6.84026 80.8319 5.91455 81.5575C4.98383 82.283 4.51345 83.2288 4.51345 84.3596C4.51345 85.7807 5.18398 86.8615 6.505 87.5771C6.95534 87.8173 7.48573 88.0224 8.07618 88.1776C8.66163 88.3327 9.15202 88.4528 9.52731 88.5278C9.88258 88.6029 10.1978 88.743 10.458 88.9582C10.7132 89.1683 10.8383 89.4435 10.8383 89.8138C10.8383 90.8496 9.80752 91.37 7.77596 91.37H6.15973C3.39761 91.37 2.05658 90.2742 2.05658 88.0174C2.05658 87.412 2.14165 86.7615 2.31678 86.0709L2.33178 86.0009H0.405314L0.395296 86.0409C0.145104 86.9016 0.0149994 87.7222 0.0149994 88.4728C0.0149994 90.104 0.595456 91.35 1.74634 92.1706C2.88722 92.9862 4.37336 93.3966 6.16474 93.3966H7.78097C9.40722 93.3966 10.6832 93.0763 11.5789 92.4458C12.4796 91.8103 12.9349 90.9247 12.9349 89.8138C12.9349 89.2734 12.8348 88.793 12.6447 88.3877C12.4495 87.9774 12.1643 87.6421 11.7941 87.387C11.4288 87.1368 11.0785 86.9366 10.7583 86.8015C10.438 86.6664 10.0377 86.5363 9.56735 86.4162C8.36142 86.091 7.55579 85.7857 7.1805 85.4955C6.80522 85.2103 6.62509 84.84 6.62509 84.3646C6.62509 83.7892 6.88027 83.3188 7.39066 82.9786H7.37065Z" fill="#4E4D4D"/>
<path d="M4.94379 94.7076C4.62355 94.7076 4.34331 94.8227 4.11314 95.0478C3.87796 95.278 3.76286 95.5582 3.76286 95.8885C3.76286 96.2187 3.88296 96.4989 4.11314 96.7291C4.34832 96.9593 4.62855 97.0744 4.94379 97.0744C5.25903 97.0744 5.54424 96.9593 5.77442 96.7291C6.0096 96.4989 6.12469 96.2187 6.12469 95.8885C6.12469 95.5582 6.00459 95.278 5.77442 95.0478C5.53924 94.8227 5.25903 94.7076 4.94379 94.7076Z" fill="#4E4D4D"/>
<path d="M7.88105 94.7076C7.5608 94.7076 7.28057 94.8227 7.05039 95.0478C6.81521 95.278 6.70012 95.5582 6.70012 95.8885C6.70012 96.2187 6.82022 96.4989 7.05039 96.7291C7.28057 96.9593 7.5608 97.0744 7.88105 97.0744C8.20129 97.0744 8.4815 96.9593 8.71167 96.7291C8.94685 96.4989 9.06195 96.2187 9.06195 95.8885C9.06195 95.5582 8.94185 95.273 8.71167 95.0478C8.47649 94.8227 8.20129 94.7076 7.88105 94.7076Z" fill="#4E4D4D"/>
<path d="M21.7617 81.7326C20.6458 80.887 19.1047 80.4566 17.1732 80.4566H16.1374V82.5482H17.1431C18.6043 82.5482 19.6851 82.7784 20.3606 83.2338C21.0261 83.6841 21.3614 84.3746 21.3614 85.2853C21.3614 86.0259 21.1813 86.5563 20.826 86.8665C20.4657 87.1768 19.8452 87.3319 18.9846 87.3319H15.2217V89.3735H18.9996C20.4357 89.3735 21.5465 89.0182 22.3021 88.3126C23.0627 87.6071 23.448 86.5713 23.448 85.2353C23.448 83.7642 22.8826 82.5882 21.7617 81.7376V81.7326Z" fill="#4E4D4D"/>
<path d="M67.8771 77.2742V85.0551C67.8771 85.8407 67.697 86.4212 67.3367 86.7815C66.9814 87.1468 66.411 87.3269 65.6454 87.3269C64.8047 87.3269 64.1943 87.1468 63.824 86.7915C63.4587 86.4362 63.2735 85.8508 63.2735 85.0551V80.4566H61.1819V85.0551C61.1819 86.5863 60.6666 87.3319 59.6058 87.3319C58.4499 87.3319 57.8844 86.5863 57.8844 85.0551V80.997H55.7928V85.0551C55.7928 86.5863 55.2774 87.3319 54.2166 87.3319C53.0607 87.3319 52.4953 86.5863 52.4953 85.0551V80.997H50.4037V85.0551C50.4037 85.8407 50.2235 86.4212 49.8633 86.7815C49.508 87.1468 48.9375 87.3269 48.172 87.3269H45.1096L46.9711 85.6456L46.9911 85.6306L47.0061 85.0502C47.0061 83.7442 46.5507 82.6383 45.65 81.7676C44.7493 80.8919 43.6235 80.4516 42.2975 80.4516C40.9714 80.4516 39.8606 80.8919 38.9599 81.7676C38.0592 82.6383 37.6038 83.7442 37.6038 85.0502V85.6306L39.4903 87.3269H33.9911V85.3954C33.9911 83.9093 33.5958 82.6983 32.8102 81.8026C32.0246 80.907 31.0088 80.4566 29.7878 80.4566C28.4818 80.4566 27.426 80.917 26.6604 81.8127C25.8899 82.7134 25.5046 83.7842 25.5046 84.9851C25.5046 86.186 25.8799 87.2068 26.6304 88.0675C27.376 88.9331 28.4318 89.3685 29.7578 89.3685H31.7894C31.4241 90.6444 30.3983 91.2899 28.747 91.2899C28.2767 91.2899 27.7863 91.2499 27.306 91.1749L27.2359 91.1648V93.1714L27.2859 93.1814C27.9665 93.3115 28.6069 93.3765 29.1924 93.3765C30.5184 93.3765 31.6042 93.0313 32.4199 92.3358C33.2305 91.6552 33.7359 90.6545 33.926 89.3635H40.6412C40.9564 89.3635 41.2417 89.2934 41.4969 89.1533C41.747 89.0082 41.9172 88.8881 42.0122 88.778C42.0923 88.6829 42.1924 88.5529 42.3125 88.3927C42.4326 88.5529 42.5326 88.6829 42.6127 88.778C42.7028 88.8881 42.8729 89.0082 43.1281 89.1533C43.3833 89.2934 43.6685 89.3635 43.9787 89.3635H48.192C49.6881 89.3635 50.839 88.8831 51.6096 87.9424C52.145 88.8831 53.0257 89.3635 54.2266 89.3635C55.4275 89.3635 56.3733 88.9131 57.0288 88.0224C57.5742 88.9131 58.4399 89.3635 59.6108 89.3635C60.7817 89.3635 61.7924 88.8931 62.4529 87.9674C63.0784 88.8881 64.1542 89.3635 65.6554 89.3635C66.9964 89.3635 68.0622 88.9732 68.8228 88.2076C69.5884 87.442 69.9787 86.3762 69.9787 85.0452V77.2642H67.8871L67.8771 77.2742ZM31.9395 87.3269H29.7929C29.0923 87.3269 28.5319 87.0867 28.1216 86.6114C27.7062 86.136 27.4961 85.5705 27.4961 84.9351C27.4961 84.2996 27.7013 83.7341 28.1116 83.2588C28.5169 82.7834 29.0723 82.5432 29.7578 82.5432C30.3833 82.5432 30.9037 82.7884 31.319 83.2688C31.7293 83.7491 31.9395 84.4497 31.9395 85.3454V87.3269ZM42.3075 87.407L39.6905 84.9951C39.7405 84.2745 40.0057 83.6841 40.4861 83.2338C40.9714 82.7734 41.5869 82.5432 42.3075 82.5432C43.028 82.5432 43.6385 82.7734 44.1289 83.2338C44.6092 83.6841 44.8744 84.2745 44.9245 84.9951L42.3075 87.407Z" fill="#4E4D4D"/>
<path d="M74.1669 77.2742H72.0753V89.3735H74.1669V77.2742Z" fill="#4E4D4D"/>
<path d="M85.7158 79.0355C86.0461 79.0355 86.3263 78.9154 86.5564 78.6853C86.7866 78.4501 86.9017 78.1699 86.9017 77.8546C86.9017 77.5394 86.7866 77.2542 86.5564 77.024C86.3263 76.7888 86.0461 76.6737 85.7158 76.6737C85.3855 76.6737 85.1003 76.7938 84.8752 77.024C84.645 77.2592 84.5299 77.5394 84.5299 77.8546C84.5299 78.1699 84.645 78.4551 84.8752 78.6853C85.1053 78.9204 85.3855 79.0355 85.7158 79.0355Z" fill="#4E4D4D"/>
<path d="M82.7786 79.0355C83.1088 79.0355 83.389 78.9154 83.6192 78.6853C83.8494 78.4501 83.9645 78.1699 83.9645 77.8546C83.9645 77.5394 83.8494 77.2542 83.6192 77.024C83.389 76.7888 83.1088 76.6737 82.7786 76.6737C82.4483 76.6737 82.1681 76.7938 81.9379 77.024C81.7077 77.2592 81.5927 77.5394 81.5927 77.8546C81.5927 78.1699 81.7077 78.4551 81.9379 78.6853C82.1681 78.9204 82.4483 79.0355 82.7786 79.0355Z" fill="#4E4D4D"/>
<path d="M92.0657 90.7095C91.7454 90.7095 91.4652 90.8296 91.235 91.0598C90.9998 91.2899 90.8848 91.5702 90.8848 91.8904C90.8848 92.2107 91.0048 92.4909 91.235 92.721C91.4652 92.9512 91.7504 93.0713 92.0657 93.0713C92.3809 93.0713 92.6611 92.9512 92.8963 92.721C93.1315 92.4859 93.2466 92.2057 93.2466 91.8904C93.2466 91.5752 93.1265 91.2899 92.8963 91.0598C92.6611 90.8246 92.3809 90.7095 92.0657 90.7095Z" fill="#4E4D4D"/>
<path d="M95.0029 90.7095C94.6827 90.7095 94.4024 90.8296 94.1723 91.0598C93.9371 91.2899 93.822 91.5702 93.822 91.8904C93.822 92.2107 93.9421 92.4909 94.1723 92.721C94.4074 92.9562 94.6827 93.0713 95.0029 93.0713C95.3232 93.0713 95.6034 92.9512 95.8335 92.721C96.0687 92.4859 96.1838 92.2057 96.1838 91.8904C96.1838 91.5752 96.0637 91.2899 95.8335 91.0598C95.6034 90.8246 95.3232 90.7095 95.0029 90.7095Z" fill="#4E4D4D"/>
<path d="M102.253 87.3269C101.273 87.3269 100.537 87.1368 100.072 86.7615C99.6115 86.3862 99.3763 85.7907 99.3763 84.9851C99.3763 84.1795 99.6465 83.594 100.177 83.1437C100.712 82.6933 101.418 82.4632 102.269 82.4632C102.999 82.4632 103.855 82.6533 104.81 83.0336L104.861 83.0536L105.571 81.2022L105.521 81.1772C104.29 80.6868 103.169 80.4416 102.198 80.4416C100.787 80.4416 99.6014 80.8519 98.6757 81.6726C97.745 82.4882 97.2747 83.584 97.2747 84.9201C97.2747 86.0009 97.6249 86.8115 98.3105 87.3269H96.9594C96.1188 87.3269 95.5033 87.1468 95.138 86.7915C94.7728 86.4362 94.5876 85.8508 94.5876 85.0551V81.5825H92.496V85.0551C92.496 85.8407 92.3159 86.4212 91.9556 86.7815C91.6003 87.1468 91.0349 87.3269 90.2693 87.3269C89.5037 87.3269 88.9383 87.1468 88.588 86.7865C88.2377 86.4212 88.0576 85.8357 88.0576 85.0551V79.7211H85.966V80.5617C85.5557 80.5117 85.1854 80.4866 84.8802 80.4866C83.329 80.4866 82.038 80.892 81.0372 81.6926C80.0364 82.4932 79.5311 83.6441 79.5311 85.1152C79.5311 86.181 79.8763 87.1117 80.5668 87.8773C81.2524 88.6529 82.1631 89.0382 83.2589 89.0382C84.7551 89.0382 85.7859 88.3727 86.3313 87.0617C86.6315 87.7672 87.1119 88.3277 87.7624 88.723C88.4479 89.1483 89.2885 89.3635 90.2693 89.3635C91.7905 89.3635 92.9463 88.8731 93.7069 87.9023C94.3224 88.8731 95.4182 89.3635 96.9594 89.3635H105.831V87.3219H102.248L102.253 87.3269ZM85.971 84.0594C85.971 84.9551 85.7508 85.6856 85.3205 86.2261C84.8902 86.7665 84.3147 87.0367 83.5942 87.0367C82.9787 87.0367 82.4883 86.8465 82.133 86.4662C81.7728 86.0909 81.5926 85.6256 81.5926 85.0852C81.5926 84.2595 81.9079 83.609 82.5234 83.1537C83.1488 82.6883 83.9545 82.4532 84.9302 82.4532C85.2655 82.4532 85.6157 82.4832 85.966 82.5432V84.0594H85.971Z" fill="#4E4D4D"/>
<path d="M117.335 80.4066C117.655 80.4066 117.936 80.2865 118.166 80.0563C118.401 79.8261 118.516 79.5459 118.516 79.2257C118.516 78.9054 118.396 78.6252 118.166 78.395C117.931 78.1598 117.65 78.0448 117.335 78.0448C117.02 78.0448 116.735 78.1649 116.504 78.395C116.269 78.6302 116.154 78.9104 116.154 79.2257C116.154 79.5409 116.274 79.8261 116.504 80.0563C116.735 80.2915 117.015 80.4066 117.335 80.4066Z" fill="#4E4D4D"/>
<path d="M138.661 77.2742V85.0551C138.661 85.8407 138.481 86.4212 138.121 86.7815C137.766 87.1468 137.195 87.3269 136.43 87.3269C135.664 87.3269 135.074 87.1718 134.703 86.8665C134.338 86.5613 134.123 86.0709 134.073 85.4054V85.2103C134.073 83.8592 133.548 82.7184 132.517 81.8177C131.486 80.922 130.225 80.4666 128.759 80.4666C127.588 80.4666 126.567 80.7268 125.722 81.2322C124.946 81.7026 124.32 82.3681 123.865 83.2087V80.4516H121.793V87.3219H120.758C119.917 87.3219 119.307 87.1418 118.936 86.7865C118.571 86.4312 118.381 85.8458 118.381 85.0502V81.5775H116.289V85.0502C116.289 85.8358 116.109 86.4162 115.749 86.7765C115.394 87.1417 114.823 87.3219 114.058 87.3219H112.236C111.486 87.3219 110.92 87.1367 110.565 86.7715C110.21 86.4062 110.029 85.8208 110.029 85.0502V77.2692H107.938V85.0502C107.938 86.3862 108.323 87.452 109.084 88.2126C109.844 88.9782 110.905 89.3685 112.241 89.3685H114.063C115.589 89.3685 116.745 88.8781 117.505 87.9073C118.121 88.8781 119.217 89.3685 120.758 89.3685H129.755C131.266 89.3685 132.427 88.8881 133.207 87.9374C133.813 88.8881 134.899 89.3685 136.43 89.3685C137.771 89.3685 138.837 88.9782 139.597 88.2126C140.363 87.447 140.753 86.3812 140.753 85.0502V77.2692H138.661V77.2742ZM131.446 86.8065C131.091 87.1518 130.52 87.3319 129.755 87.3319H123.85V86.9866C123.895 85.7607 124.4 84.6999 125.356 83.8492C126.317 82.9986 127.458 82.5632 128.754 82.5632C129.695 82.5632 130.475 82.8134 131.076 83.3038C131.671 83.7892 131.976 84.4347 131.976 85.2153C131.976 85.9258 131.796 86.4612 131.441 86.8065H131.446Z" fill="#4E4D4D"/>
<path d="M144.951 77.2742H142.86V89.3735H144.951V77.2742Z" fill="#4E4D4D"/>
<path d="M156.495 79.0355C156.825 79.0355 157.111 78.9154 157.336 78.6853C157.561 78.4551 157.681 78.1699 157.681 77.8546C157.681 77.5394 157.566 77.2542 157.336 77.024C157.106 76.7888 156.825 76.6737 156.495 76.6737C156.165 76.6737 155.885 76.7938 155.655 77.024C155.424 77.2592 155.309 77.5394 155.309 77.8546C155.309 78.1699 155.424 78.4551 155.655 78.6853C155.885 78.9154 156.165 79.0355 156.495 79.0355Z" fill="#4E4D4D"/>
<path d="M153.558 79.0355C153.888 79.0355 154.168 78.9154 154.399 78.6853C154.629 78.4501 154.744 78.1699 154.744 77.8546C154.744 77.5394 154.629 77.2542 154.399 77.024C154.168 76.7888 153.888 76.6737 153.558 76.6737C153.228 76.6737 152.942 76.7938 152.717 77.024C152.487 77.2592 152.372 77.5394 152.372 77.8546C152.372 78.1699 152.487 78.4551 152.717 78.6853C152.947 78.9204 153.228 79.0355 153.558 79.0355Z" fill="#4E4D4D"/>
<path d="M162.85 90.7095C162.53 90.7095 162.25 90.8296 162.019 91.0598C161.784 91.2899 161.669 91.5702 161.669 91.8904C161.669 92.2107 161.789 92.4909 162.019 92.721C162.255 92.9562 162.535 93.0713 162.85 93.0713C163.165 93.0713 163.45 92.9512 163.681 92.721C163.916 92.4859 164.031 92.2057 164.031 91.8904C164.031 91.5752 163.911 91.2899 163.681 91.0598C163.445 90.8246 163.165 90.7095 162.85 90.7095Z" fill="#4E4D4D"/>
<path d="M165.787 90.7095C165.467 90.7095 165.187 90.8296 164.957 91.0598C164.721 91.2899 164.606 91.5702 164.606 91.8904C164.606 92.2107 164.726 92.4909 164.957 92.721C165.192 92.9562 165.467 93.0713 165.787 93.0713C166.108 93.0713 166.388 92.9512 166.618 92.721C166.853 92.4859 166.973 92.2057 166.973 91.8904C166.973 91.5752 166.853 91.2899 166.618 91.0598C166.388 90.8246 166.108 90.7095 165.787 90.7095Z" fill="#4E4D4D"/>
<path d="M184.987 80.4066C185.307 80.4066 185.587 80.2865 185.818 80.0563C186.053 79.8261 186.168 79.5459 186.168 79.2257C186.168 78.9054 186.048 78.6252 185.818 78.395C185.582 78.1598 185.302 78.0448 184.987 78.0448C184.672 78.0448 184.387 78.1649 184.156 78.395C183.921 78.6302 183.806 78.9104 183.806 79.2257C183.806 79.5409 183.926 79.8261 184.156 80.0563C184.387 80.2915 184.667 80.4066 184.987 80.4066Z" fill="#4E4D4D"/>
<path d="M193.198 80.3916C193.529 80.3916 193.809 80.2765 194.039 80.0463C194.269 79.8212 194.384 79.5359 194.384 79.2057C194.384 78.8754 194.269 78.5952 194.039 78.365C193.809 78.1348 193.529 78.0197 193.198 78.0197C192.868 78.0197 192.583 78.1348 192.358 78.365C192.127 78.5952 192.012 78.8754 192.012 79.2057C192.012 79.5359 192.127 79.8212 192.358 80.0463C192.583 80.2765 192.868 80.3916 193.198 80.3916Z" fill="#4E4D4D"/>
<path d="M190.261 80.3916C190.591 80.3916 190.877 80.2765 191.102 80.0463C191.332 79.8212 191.447 79.5359 191.447 79.2057C191.447 78.8754 191.332 78.5902 191.102 78.365C190.872 78.1348 190.591 78.0197 190.261 78.0197C189.931 78.0197 189.651 78.1348 189.42 78.365C189.19 78.5952 189.075 78.8754 189.075 79.2057C189.075 79.5359 189.19 79.8212 189.42 80.0463C189.646 80.2765 189.931 80.3916 190.261 80.3916Z" fill="#4E4D4D"/>
<path d="M197.336 77.2742V85.0551C197.336 85.8407 197.156 86.4212 196.796 86.7815C196.441 87.1468 195.875 87.3269 195.11 87.3269C194.269 87.3269 193.654 87.1468 193.288 86.7915C192.923 86.4362 192.738 85.8508 192.738 85.0551V81.5825H190.646V85.0551C190.646 85.8407 190.466 86.4212 190.111 86.7815C189.756 87.1468 189.185 87.3269 188.42 87.3269C187.579 87.3269 186.964 87.1468 186.598 86.7915C186.233 86.4362 186.048 85.8508 186.048 85.0551V81.5825H183.956V85.0551C183.956 85.8407 183.776 86.4212 183.421 86.7815C183.066 87.1468 182.495 87.3269 181.73 87.3269C180.964 87.3269 180.338 87.1668 179.973 86.8415C179.608 86.5213 179.398 86.0009 179.358 85.3004C179.368 85.2203 179.373 85.0952 179.373 84.9351C179.373 83.6791 178.962 82.6033 178.157 81.7426C177.346 80.8869 176.33 80.4516 175.134 80.4516C174.144 80.4516 173.293 80.7819 172.613 81.4374C171.932 82.0929 171.442 83.0286 171.141 84.2295C171.071 84.5298 171.006 84.84 170.946 85.1452C170.881 85.4705 170.821 85.7257 170.776 85.9108C170.726 86.0909 170.656 86.3011 170.556 86.5263C170.336 87.0617 169.885 87.3219 169.19 87.3219H167.754C166.913 87.3219 166.303 87.1418 165.932 86.7865C165.567 86.4312 165.382 85.8458 165.382 85.0502V81.5775H163.29V85.0502C163.29 85.8358 163.11 86.4162 162.75 86.7765C162.395 87.1417 161.824 87.3219 161.059 87.3219C160.293 87.3219 159.728 87.1418 159.377 86.7815C159.022 86.4162 158.842 85.8308 158.842 85.0502V79.7161H156.75V80.5567C156.34 80.5067 155.975 80.4817 155.664 80.4817C154.113 80.4817 152.822 80.887 151.822 81.6876C150.821 82.4882 150.315 83.6391 150.315 85.1102C150.315 86.176 150.666 87.1067 151.351 87.8723C152.042 88.6479 152.947 89.0332 154.048 89.0332C155.539 89.0332 156.575 88.3677 157.116 87.0567C157.416 87.7622 157.896 88.3227 158.547 88.718C159.232 89.1433 160.073 89.3585 161.049 89.3585C162.57 89.3585 163.726 88.8681 164.486 87.8973C165.102 88.8681 166.198 89.3585 167.744 89.3585H169.18C170.431 89.3585 171.382 88.9181 172.012 88.0475C172.953 88.9381 174.034 89.3885 175.22 89.3885C175.855 89.3885 176.465 89.2434 177.041 88.9682C177.586 88.6979 178.057 88.3177 178.427 87.8323C179.032 88.8431 180.138 89.3585 181.714 89.3585C183.291 89.3585 184.392 88.8681 185.152 87.8973C185.768 88.8681 186.863 89.3585 188.41 89.3585C189.956 89.3585 191.087 88.8681 191.847 87.8973C192.463 88.8681 193.559 89.3585 195.105 89.3585C196.441 89.3585 197.507 88.9682 198.267 88.2026C199.033 87.437 199.423 86.3712 199.423 85.0401V77.2592H197.331L197.336 77.2742ZM156.75 84.0594C156.75 84.9551 156.53 85.6856 156.1 86.2261C155.674 86.7665 155.094 87.0367 154.373 87.0367C153.758 87.0367 153.268 86.8465 152.912 86.4662C152.552 86.0909 152.372 85.6256 152.372 85.0852C152.372 84.2595 152.682 83.609 153.303 83.1537C153.923 82.6883 154.734 82.4532 155.71 82.4532C156.05 82.4532 156.395 82.4832 156.745 82.5432V84.0594H156.75ZM176.666 86.7114C176.265 87.1417 175.765 87.3619 175.174 87.3619C174.309 87.3619 173.518 86.9516 172.818 86.131C172.923 85.5605 173.043 85.0402 173.173 84.5798C173.363 83.8793 173.623 83.3639 173.939 83.0386C174.244 82.7134 174.649 82.5482 175.129 82.5482C175.755 82.5482 176.27 82.7734 176.671 83.2187C177.076 83.6591 177.276 84.2445 177.276 84.9401C177.276 85.6856 177.076 86.2811 176.671 86.7164L176.666 86.7114Z" fill="#4E4D4D"/>
<path d="M203.621 77.2742H201.53V89.3735H203.621V77.2742Z" fill="#4E4D4D"/>
<path d="M216.071 79.576C216.391 79.576 216.671 79.4608 216.902 79.2357C217.137 79.0055 217.252 78.7253 217.252 78.395C217.252 78.0648 217.132 77.7846 216.902 77.5544C216.666 77.3242 216.386 77.2091 216.071 77.2091C215.756 77.2091 215.47 77.3242 215.24 77.5544C215.005 77.7846 214.89 78.0648 214.89 78.395C214.89 78.7253 215.01 79.0105 215.24 79.2357C215.475 79.4608 215.751 79.576 216.071 79.576Z" fill="#4E4D4D"/>
<path d="M220.594 81.8077C219.809 80.912 218.793 80.4616 217.572 80.4616C216.266 80.4616 215.21 80.932 214.445 81.8577C213.679 82.7784 213.289 83.8642 213.289 85.0902C213.289 86.2461 213.644 87.2518 214.34 88.0975C215.04 88.9431 216.006 89.3785 217.217 89.3785C218.278 89.3785 219.123 88.9631 219.724 88.1475V88.748C219.724 89.9639 219.393 90.8396 218.743 91.355C218.087 91.8704 216.987 92.1306 215.475 92.1306C212.568 92.1306 211.092 90.9096 211.092 88.5028C211.092 87.9874 211.147 87.447 211.252 86.8966L211.267 86.8265H209.341L209.331 86.8665C209.146 87.6371 209.05 88.3427 209.05 88.9682C209.05 90.6995 209.656 92.0205 210.852 92.9012C212.043 93.7768 213.599 94.2222 215.475 94.2222C217.517 94.2222 219.093 93.7518 220.164 92.8361C221.24 91.9154 221.785 90.5394 221.785 88.743V85.3954C221.785 83.9093 221.385 82.7033 220.604 81.8027L220.594 81.8077ZM218.938 86.7414C218.518 87.1317 218.057 87.3319 217.572 87.3319C216.887 87.3319 216.336 87.0917 215.936 86.6163C215.53 86.141 215.33 85.5756 215.33 84.9401C215.33 84.3046 215.53 83.7392 215.926 83.2638C216.321 82.7884 216.866 82.5482 217.542 82.5482C218.152 82.5482 218.668 82.7834 219.083 83.2588C219.499 83.7341 219.709 84.4147 219.724 85.2753C219.629 85.8558 219.368 86.3561 218.943 86.7464L218.938 86.7414Z" fill="#4E4D4D"/>
<path d="M219.008 79.576C219.328 79.576 219.609 79.4608 219.839 79.2357C220.074 79.0055 220.189 78.7253 220.189 78.395C220.189 78.0648 220.069 77.7846 219.839 77.5544C219.604 77.3242 219.323 77.2091 219.008 77.2091C218.693 77.2091 218.408 77.3242 218.177 77.5544C217.942 77.7846 217.827 78.0648 217.827 78.395C217.827 78.7253 217.947 79.0105 218.177 79.2357C218.413 79.4608 218.688 79.576 219.008 79.576Z" fill="#4E4D4D"/>
<path d="M231.223 81.8077C230.437 80.912 229.421 80.4616 228.2 80.4616C226.859 80.4616 225.793 80.932 225.028 81.8577C224.267 82.7784 223.882 83.8642 223.882 85.0902C223.882 86.3161 224.227 87.2669 224.923 88.1075C225.618 88.9482 226.599 89.3785 227.84 89.3785C228.901 89.3785 229.746 88.9631 230.347 88.1475V88.2076C230.347 89.2634 230.082 90.054 229.566 90.5494C229.041 91.0448 228.235 91.3 227.154 91.3C226.684 91.3 226.194 91.2599 225.713 91.1849L225.643 91.1749L225.628 93.1364V93.1864L225.678 93.1964C226.359 93.3265 227.004 93.3916 227.6 93.3916C229.111 93.3916 230.302 92.9412 231.142 92.0505C231.983 91.1599 232.408 89.8739 232.408 88.2226V85.4004C232.408 83.9143 232.008 82.7084 231.228 81.8077H231.223ZM229.611 86.6714C229.181 87.1117 228.706 87.3319 228.2 87.3319C227.48 87.3319 226.914 87.0967 226.519 86.6264C226.124 86.156 225.923 85.5856 225.923 84.9401C225.923 84.2946 226.124 83.7291 226.514 83.2588C226.904 82.7884 227.46 82.5482 228.17 82.5482C228.761 82.5482 229.266 82.7684 229.666 83.2038C230.077 83.6391 230.302 84.2696 230.347 85.0702C230.297 85.6957 230.047 86.2361 229.611 86.6764V86.6714Z" fill="#4E4D4D"/>
<path d="M250.247 80.4066C250.567 80.4066 250.848 80.2865 251.078 80.0563C251.313 79.8211 251.428 79.5409 251.428 79.2257C251.428 78.9104 251.308 78.6252 251.078 78.395C250.843 78.1598 250.562 78.0448 250.247 78.0448C249.932 78.0448 249.647 78.1649 249.416 78.395C249.181 78.6302 249.066 78.9104 249.066 79.2257C249.066 79.5409 249.186 79.8261 249.416 80.0563C249.647 80.2915 249.927 80.4066 250.247 80.4066Z" fill="#4E4D4D"/>
<path d="M265.434 81.8227C264.408 80.927 263.142 80.4716 261.676 80.4716C260.505 80.4716 259.484 80.7318 258.639 81.2372C257.858 81.7076 257.232 82.3731 256.782 83.2137V80.4566H254.706V87.3269H253.675C252.834 87.3269 252.219 87.1468 251.853 86.7915C251.488 86.4362 251.303 85.8508 251.303 85.0551V81.5825H249.211V85.0551C249.211 85.8407 249.031 86.4212 248.676 86.7815C248.321 87.1468 247.75 87.3269 246.985 87.3269H245.098C244.323 87.3269 243.742 87.1768 243.372 86.8765C243.007 86.5763 242.791 86.091 242.741 85.4255V85.2303C242.741 83.7592 242.171 82.5833 241.05 81.7326C239.934 80.887 238.393 80.4566 236.462 80.4566H235.421V82.5482H236.426C237.888 82.5482 238.968 82.7784 239.649 83.2338C240.315 83.6841 240.65 84.3746 240.65 85.2853C240.65 86.0259 240.47 86.5613 240.119 86.8665C239.759 87.1768 239.144 87.3369 238.278 87.3369H234.515V89.3785H238.293C239.944 89.3785 241.155 88.9131 241.901 87.9974C242.526 88.9131 243.602 89.3785 245.103 89.3785H246.99C248.516 89.3785 249.667 88.8881 250.427 87.9174C251.043 88.8881 252.139 89.3785 253.685 89.3785H262.677C264.013 89.3785 265.078 88.9982 265.839 88.2526C266.605 87.507 266.995 86.4863 266.995 85.2253C266.995 83.8743 266.47 82.7384 265.439 81.8327L265.434 81.8227ZM264.363 86.8065C264.008 87.1518 263.437 87.3319 262.672 87.3319H256.772V86.9866C256.812 85.7607 257.323 84.6999 258.278 83.8492C259.239 82.9986 260.38 82.5632 261.676 82.5632C262.617 82.5632 263.397 82.8134 263.998 83.3038C264.593 83.7892 264.898 84.4347 264.898 85.2153C264.898 85.9258 264.718 86.4612 264.363 86.8065Z" fill="#4E4D4D"/>
<path d="M37.7089 31.2288C34.3464 28.4217 29.2324 26.7804 22.0619 26.21C17.0331 25.8547 13.5354 24.974 11.669 23.583C9.93763 22.297 9.09698 20.4556 9.09698 17.9486C9.09698 14.3158 10.2229 11.899 12.5446 10.548C15.0816 9.06682 18.9595 8.32124 24.0635 8.32124C26.4053 8.32124 28.9822 8.37128 31.6543 8.91169C36.7082 9.93748 38.6947 11.0133 38.6947 11.0133L41.3017 2.84704L39.9056 2.43173C34.8918 0.945588 29.5327 0.190002 23.9834 0.190002C8.06619 0.190002 0 6.21963 0 18.1138C0 23.643 1.75132 27.7161 5.19897 30.2281C8.52152 32.6499 13.6805 34.071 20.9711 34.5814C25.8448 34.9317 29.2675 35.9675 31.1439 37.6488C32.9703 39.29 33.856 41.3866 33.856 44.0537C33.856 47.6214 32.6801 50.0283 30.2582 51.4093C27.6112 52.9205 23.6482 53.6861 18.4842 53.6861C12.9149 53.6861 8.27134 53.0106 4.68359 51.6745L3.26248 51.1441L0.765572 59.1352L2.13662 59.5656C7.05039 61.1118 12.5797 61.8924 18.5693 61.8924C34.6966 61.8924 42.8779 55.8627 42.8779 43.9686C42.8779 38.3743 41.1416 34.086 37.714 31.2238L37.7089 31.2288Z" fill="#4E4D4D"/>
<path d="M62.1027 1.56105H53.406V60.7615H62.1027V1.56105Z" fill="#4E4D4D"/>
<path d="M120.267 17.068C119.146 13.17 117.34 10.0376 114.893 7.76082C112.476 5.51409 109.559 3.89785 106.227 2.94712C102.989 2.02642 98.966 1.56105 94.2774 1.56105H75.4629V60.7615H94.2774C103.79 60.7615 110.845 58.5148 115.253 54.0764C119.662 49.643 121.894 41.892 121.894 31.0437C121.894 25.5495 121.343 20.8459 120.262 17.073L120.267 17.068ZM108.758 48.5871C106.121 51.5394 101.248 53.0356 94.2774 53.0356H84.1596V9.28698H94.2774C98.0202 9.28698 101.033 9.5622 103.224 10.0926C105.276 10.593 107.087 11.6088 108.618 13.1149C110.135 14.6061 111.21 16.7427 111.821 19.4748C112.466 22.382 112.797 26.27 112.797 31.0387C112.797 39.6803 111.441 45.5848 108.758 48.5871Z" fill="#4E4D4D"/>
<path d="M170.926 9.28698V1.56105H132.272V60.7615H140.973V35.7923H164.161V28.0664H140.973V9.28698H170.926Z" fill="#4E4D4D"/>
<path d="M215.686 1.46597L198.577 31.1137L207.339 46.3054H218.878L210.121 31.1137L221.48 11.4987H244.102L255.461 31.1137L244.102 50.7288H238.768L232.974 60.7615H249.897L267 31.1137L249.897 1.46597H215.686Z" fill="#60A534"/>
<path d="M193.654 1.46597L176.5 31.1137L193.654 60.7615H227.865L244.968 31.1137L236.211 15.9221H224.627L233.384 31.1137L222.07 50.7288H199.398L188.089 31.1137L199.398 11.4987H204.782L210.532 1.46597H193.654Z" fill="#60A534"/>
</svg>
