<svg width="51" height="54" viewBox="0 0 51 54" fill="none" xmlns="http://www.w3.org/2000/svg">
<path d="M7.00005 53.0202C6.44005 52.7502 5.94008 52.5401 5.72008 51.9001C5.70008 51.8301 5.57006 51.2702 5.57006 51.2302V26.7004H2.05004C2.05004 26.7004 1.41007 26.3602 1.33007 26.2902C0.730066 25.7602 0.560066 24.6404 1.08007 23.9904L24.4401 1.35027C25.4001 0.590273 26.1301 0.590273 27.0901 1.35027L50.4501 23.9904C50.9601 24.6304 50.7901 25.7602 50.2001 26.2902C50.1301 26.3502 49.53 26.7004 49.48 26.7004H45.9601V51.2302C45.9601 51.2302 45.83 51.8201 45.81 51.9001C45.59 52.5401 45.0901 52.7502 44.5301 53.0202H31.4701C31.0301 52.8802 30.1401 52.1203 30.1401 51.6403V37.2101H21.37V51.6403C21.37 52.1103 20.48 52.8702 20.04 53.0202H6.98003H7.00005ZM48.92 24.9704L25.73 2.64031L2.61003 24.9704H5.93004C5.93004 24.9704 6.54005 25.2302 6.63005 25.2902C7.01005 25.5402 7.41002 26.2001 7.41002 26.6501V51.28H19.6501V36.8503C19.6501 36.3003 20.68 35.5002 21.24 35.4802C24.09 35.6302 27.1901 35.2504 30.0101 35.4704C30.6301 35.5204 31.2801 35.7502 31.6301 36.2902C31.6801 36.3702 31.8901 36.8003 31.8901 36.8503V51.28H44.1301V26.6501C44.1301 26.2001 44.53 25.5402 44.91 25.2902C45 25.2302 45.56 24.9704 45.61 24.9704H48.93H48.92Z" fill="white"/>
</svg>
