<svg width="534" height="194" viewBox="0 0 534 194" fill="none" xmlns="http://www.w3.org/2000/svg">
<path d="M14.94 165.64C15.97 164.94 17.36 164.58 19.07 164.58C20.91 164.58 22.94 165.01 25.1 165.84L25.21 165.88L26.46 162.14L26.36 162.1C23.9 161.12 21.49 160.62 19.2 160.62C16.29 160.62 13.88 161.35 12.03 162.8C10.17 164.25 9.22998 166.14 9.22998 168.4C9.22998 171.24 10.57 173.4 13.21 174.83C14.11 175.31 15.17 175.72 16.35 176.03C17.52 176.34 18.5 176.58 19.25 176.73C19.96 176.88 20.59 177.16 21.11 177.59C21.62 178.01 21.87 178.56 21.87 179.3C21.87 181.37 19.81 182.41 15.75 182.41H12.52C7.00002 182.41 4.32001 180.22 4.32001 175.71C4.32001 174.5 4.49003 173.2 4.84003 171.82L4.87 171.68H1.02002L1 171.76C0.5 173.48 0.23999 175.12 0.23999 176.62C0.23999 179.88 1.40001 182.37 3.70001 184.01C5.98001 185.64 8.95003 186.46 12.53 186.46H15.76C19.01 186.46 21.56 185.82 23.35 184.56C25.15 183.29 26.06 181.52 26.06 179.3C26.06 178.22 25.86 177.26 25.48 176.45C25.09 175.63 24.52 174.96 23.78 174.45C23.05 173.95 22.35 173.55 21.71 173.28C21.07 173.01 20.27 172.75 19.33 172.51C16.92 171.86 15.31 171.25 14.56 170.67C13.81 170.1 13.45 169.36 13.45 168.41C13.45 167.26 13.96 166.32 14.98 165.64H14.94Z" fill="#4E4D4D"/>
<path d="M10.09 189.08C9.45003 189.08 8.88999 189.31 8.42999 189.76C7.95999 190.22 7.72998 190.78 7.72998 191.44C7.72998 192.1 7.96999 192.66 8.42999 193.12C8.89999 193.58 9.46003 193.81 10.09 193.81C10.72 193.81 11.29 193.58 11.75 193.12C12.22 192.66 12.45 192.1 12.45 191.44C12.45 190.78 12.21 190.22 11.75 189.76C11.28 189.31 10.72 189.08 10.09 189.08Z" fill="#4E4D4D"/>
<path d="M15.96 189.08C15.32 189.08 14.76 189.31 14.3 189.76C13.83 190.22 13.6 190.78 13.6 191.44C13.6 192.1 13.84 192.66 14.3 193.12C14.76 193.58 15.32 193.81 15.96 193.81C16.6 193.81 17.16 193.58 17.62 193.12C18.09 192.66 18.32 192.1 18.32 191.44C18.32 190.78 18.08 190.21 17.62 189.76C17.15 189.31 16.6 189.08 15.96 189.08Z" fill="#4E4D4D"/>
<path d="M43.7 163.15C41.47 161.46 38.39 160.6 34.53 160.6H32.46V164.78H34.47C37.39 164.78 39.55 165.24 40.9 166.15C42.23 167.05 42.9 168.43 42.9 170.25C42.9 171.73 42.54 172.79 41.83 173.41C41.11 174.03 39.87 174.34 38.15 174.34H30.63V178.42H38.18C41.05 178.42 43.27 177.71 44.78 176.3C46.3 174.89 47.07 172.82 47.07 170.15C47.07 167.21 45.94 164.86 43.7 163.16V163.15Z" fill="#4E4D4D"/>
<path d="M135.86 154.24V169.79C135.86 171.36 135.5 172.52 134.78 173.24C134.07 173.97 132.93 174.33 131.4 174.33C129.72 174.33 128.5 173.97 127.76 173.26C127.03 172.55 126.66 171.38 126.66 169.79V160.6H122.48V169.79C122.48 172.85 121.45 174.34 119.33 174.34C117.02 174.34 115.89 172.85 115.89 169.79V161.68H111.71V169.79C111.71 172.85 110.68 174.34 108.56 174.34C106.25 174.34 105.12 172.85 105.12 169.79V161.68H100.94V169.79C100.94 171.36 100.58 172.52 99.86 173.24C99.15 173.97 98.01 174.33 96.48 174.33H90.36L94.08 170.97L94.12 170.94L94.15 169.78C94.15 167.17 93.24 164.96 91.44 163.22C89.64 161.47 87.39 160.59 84.74 160.59C82.09 160.59 79.87 161.47 78.07 163.22C76.27 164.96 75.36 167.17 75.36 169.78V170.94L79.13 174.33H68.14V170.47C68.14 167.5 67.35 165.08 65.78 163.29C64.21 161.5 62.18 160.6 59.74 160.6C57.13 160.6 55.02 161.52 53.49 163.31C51.95 165.11 51.18 167.25 51.18 169.65C51.18 172.05 51.93 174.09 53.43 175.81C54.92 177.54 57.03 178.41 59.68 178.41H63.74C63.01 180.96 60.96 182.25 57.66 182.25C56.72 182.25 55.74 182.17 54.78 182.02L54.64 182V186.01L54.74 186.03C56.1 186.29 57.38 186.42 58.55 186.42C61.2 186.42 63.37 185.73 65 184.34C66.62 182.98 67.63 180.98 68.01 178.4H81.43C82.06 178.4 82.63 178.26 83.14 177.98C83.64 177.69 83.98 177.45 84.17 177.23C84.33 177.04 84.53 176.78 84.77 176.46C85.01 176.78 85.21 177.04 85.37 177.23C85.55 177.45 85.89 177.69 86.4 177.98C86.91 178.26 87.48 178.4 88.1 178.4H96.52C99.51 178.4 101.81 177.44 103.35 175.56C104.42 177.44 106.18 178.4 108.58 178.4C110.98 178.4 112.87 177.5 114.18 175.72C115.27 177.5 117 178.4 119.34 178.4C121.68 178.4 123.7 177.46 125.02 175.61C126.27 177.45 128.42 178.4 131.42 178.4C134.1 178.4 136.23 177.62 137.75 176.09C139.28 174.56 140.06 172.43 140.06 169.77V154.22H135.88L135.86 154.24ZM64.04 174.33H59.75C58.35 174.33 57.23 173.85 56.41 172.9C55.58 171.95 55.16 170.82 55.16 169.55C55.16 168.28 55.57 167.15 56.39 166.2C57.2 165.25 58.31 164.77 59.68 164.77C60.93 164.77 61.97 165.26 62.8 166.22C63.62 167.18 64.04 168.58 64.04 170.37V174.33ZM84.76 174.49L79.53 169.67C79.63 168.23 80.16 167.05 81.12 166.15C82.09 165.23 83.32 164.77 84.76 164.77C86.2 164.77 87.42 165.23 88.4 166.15C89.36 167.05 89.89 168.23 89.99 169.67L84.76 174.49Z" fill="#4E4D4D"/>
<path d="M148.43 154.24H144.25V178.42H148.43V154.24Z" fill="#4E4D4D"/>
<path d="M171.51 157.76C172.17 157.76 172.73 157.52 173.19 157.06C173.65 156.59 173.88 156.03 173.88 155.4C173.88 154.77 173.65 154.2 173.19 153.74C172.73 153.27 172.17 153.04 171.51 153.04C170.85 153.04 170.28 153.28 169.83 153.74C169.37 154.21 169.14 154.77 169.14 155.4C169.14 156.03 169.37 156.6 169.83 157.06C170.29 157.53 170.85 157.76 171.51 157.76Z" fill="#4E4D4D"/>
<path d="M165.64 157.76C166.3 157.76 166.86 157.52 167.32 157.06C167.78 156.59 168.01 156.03 168.01 155.4C168.01 154.77 167.78 154.2 167.32 153.74C166.86 153.27 166.3 153.04 165.64 153.04C164.98 153.04 164.42 153.28 163.96 153.74C163.5 154.21 163.27 154.77 163.27 155.4C163.27 156.03 163.5 156.6 163.96 157.06C164.42 157.53 164.98 157.76 165.64 157.76Z" fill="#4E4D4D"/>
<path d="M184.2 181.09C183.56 181.09 183 181.33 182.54 181.79C182.07 182.25 181.84 182.81 181.84 183.45C181.84 184.09 182.08 184.65 182.54 185.11C183 185.57 183.57 185.81 184.2 185.81C184.83 185.81 185.39 185.57 185.86 185.11C186.33 184.64 186.56 184.08 186.56 183.45C186.56 182.82 186.32 182.25 185.86 181.79C185.39 181.32 184.83 181.09 184.2 181.09Z" fill="#4E4D4D"/>
<path d="M190.07 181.09C189.43 181.09 188.87 181.33 188.41 181.79C187.94 182.25 187.71 182.81 187.71 183.45C187.71 184.09 187.95 184.65 188.41 185.11C188.88 185.58 189.43 185.81 190.07 185.81C190.71 185.81 191.27 185.57 191.73 185.11C192.2 184.64 192.43 184.08 192.43 183.45C192.43 182.82 192.19 182.25 191.73 181.79C191.27 181.32 190.71 181.09 190.07 181.09Z" fill="#4E4D4D"/>
<path d="M204.56 174.33C202.6 174.33 201.13 173.95 200.2 173.2C199.28 172.45 198.81 171.26 198.81 169.65C198.81 168.04 199.35 166.87 200.41 165.97C201.48 165.07 202.89 164.61 204.59 164.61C206.05 164.61 207.76 164.99 209.67 165.75L209.77 165.79L211.19 162.09L211.09 162.04C208.63 161.06 206.39 160.57 204.45 160.57C201.63 160.57 199.26 161.39 197.41 163.03C195.55 164.66 194.61 166.85 194.61 169.52C194.61 171.68 195.31 173.3 196.68 174.33H193.98C192.3 174.33 191.07 173.97 190.34 173.26C189.61 172.55 189.24 171.38 189.24 169.79V162.85H185.06V169.79C185.06 171.36 184.7 172.52 183.98 173.24C183.27 173.97 182.14 174.33 180.61 174.33C179.08 174.33 177.95 173.97 177.25 173.25C176.55 172.52 176.19 171.35 176.19 169.79V159.13H172.01V160.81C171.19 160.71 170.45 160.66 169.84 160.66C166.74 160.66 164.16 161.47 162.16 163.07C160.16 164.67 159.15 166.97 159.15 169.91C159.15 172.04 159.84 173.9 161.22 175.43C162.59 176.98 164.41 177.75 166.6 177.75C169.59 177.75 171.65 176.42 172.74 173.8C173.34 175.21 174.3 176.33 175.6 177.12C176.97 177.97 178.65 178.4 180.61 178.4C183.65 178.4 185.96 177.42 187.48 175.48C188.71 177.42 190.9 178.4 193.98 178.4H211.71V174.32H204.55L204.56 174.33ZM172.02 167.8C172.02 169.59 171.58 171.05 170.72 172.13C169.86 173.21 168.71 173.75 167.27 173.75C166.04 173.75 165.06 173.37 164.35 172.61C163.63 171.86 163.27 170.93 163.27 169.85C163.27 168.2 163.9 166.9 165.13 165.99C166.38 165.06 167.99 164.59 169.94 164.59C170.61 164.59 171.31 164.65 172.01 164.77V167.8H172.02Z" fill="#4E4D4D"/>
<path d="M234.7 160.5C235.34 160.5 235.9 160.26 236.36 159.8C236.83 159.34 237.06 158.78 237.06 158.14C237.06 157.5 236.82 156.94 236.36 156.48C235.89 156.01 235.33 155.78 234.7 155.78C234.07 155.78 233.5 156.02 233.04 156.48C232.57 156.95 232.34 157.51 232.34 158.14C232.34 158.77 232.58 159.34 233.04 159.8C233.5 160.27 234.06 160.5 234.7 160.5Z" fill="#4E4D4D"/>
<path d="M277.32 154.24V169.79C277.32 171.36 276.96 172.52 276.24 173.24C275.53 173.97 274.39 174.33 272.86 174.33C271.33 174.33 270.15 174.02 269.41 173.41C268.68 172.8 268.25 171.82 268.15 170.49V170.1C268.15 167.4 267.1 165.12 265.04 163.32C262.98 161.53 260.46 160.62 257.53 160.62C255.19 160.62 253.15 161.14 251.46 162.15C249.91 163.09 248.66 164.42 247.75 166.1V160.59H243.61V174.32H241.54C239.86 174.32 238.64 173.96 237.9 173.25C237.17 172.54 236.79 171.37 236.79 169.78V162.84H232.61V169.78C232.61 171.35 232.25 172.51 231.53 173.23C230.82 173.96 229.68 174.32 228.15 174.32H224.51C223.01 174.32 221.88 173.95 221.17 173.22C220.46 172.49 220.1 171.32 220.1 169.78V154.23H215.92V169.78C215.92 172.45 216.69 174.58 218.21 176.1C219.73 177.63 221.85 178.41 224.52 178.41H228.16C231.21 178.41 233.52 177.43 235.04 175.49C236.27 177.43 238.46 178.41 241.54 178.41H259.52C262.54 178.41 264.86 177.45 266.42 175.55C267.63 177.45 269.8 178.41 272.86 178.41C275.54 178.41 277.67 177.63 279.19 176.1C280.72 174.57 281.5 172.44 281.5 169.78V154.23H277.32V154.24ZM262.9 173.29C262.19 173.98 261.05 174.34 259.52 174.34H247.72V173.65C247.81 171.2 248.82 169.08 250.73 167.38C252.65 165.68 254.93 164.81 257.52 164.81C259.4 164.81 260.96 165.31 262.16 166.29C263.35 167.26 263.96 168.55 263.96 170.11C263.96 171.53 263.6 172.6 262.89 173.29H262.9Z" fill="#4E4D4D"/>
<path d="M289.89 154.24H285.71V178.42H289.89V154.24Z" fill="#4E4D4D"/>
<path d="M312.96 157.76C313.62 157.76 314.19 157.52 314.64 157.06C315.09 156.6 315.33 156.03 315.33 155.4C315.33 154.77 315.1 154.2 314.64 153.74C314.18 153.27 313.62 153.04 312.96 153.04C312.3 153.04 311.74 153.28 311.28 153.74C310.82 154.21 310.59 154.77 310.59 155.4C310.59 156.03 310.82 156.6 311.28 157.06C311.74 157.52 312.3 157.76 312.96 157.76Z" fill="#4E4D4D"/>
<path d="M307.09 157.76C307.75 157.76 308.31 157.52 308.77 157.06C309.23 156.59 309.46 156.03 309.46 155.4C309.46 154.77 309.23 154.2 308.77 153.74C308.31 153.27 307.75 153.04 307.09 153.04C306.43 153.04 305.86 153.28 305.41 153.74C304.95 154.21 304.72 154.77 304.72 155.4C304.72 156.03 304.95 156.6 305.41 157.06C305.87 157.53 306.43 157.76 307.09 157.76Z" fill="#4E4D4D"/>
<path d="M325.66 181.09C325.02 181.09 324.46 181.33 324 181.79C323.53 182.25 323.3 182.81 323.3 183.45C323.3 184.09 323.54 184.65 324 185.11C324.47 185.58 325.03 185.81 325.66 185.81C326.29 185.81 326.86 185.57 327.32 185.11C327.79 184.64 328.02 184.08 328.02 183.45C328.02 182.82 327.78 182.25 327.32 181.79C326.85 181.32 326.29 181.09 325.66 181.09Z" fill="#4E4D4D"/>
<path d="M331.53 181.09C330.89 181.09 330.33 181.33 329.87 181.79C329.4 182.25 329.17 182.81 329.17 183.45C329.17 184.09 329.41 184.65 329.87 185.11C330.34 185.58 330.89 185.81 331.53 185.81C332.17 185.81 332.73 185.57 333.19 185.11C333.66 184.64 333.9 184.08 333.9 183.45C333.9 182.82 333.66 182.25 333.19 181.79C332.73 181.32 332.17 181.09 331.53 181.09Z" fill="#4E4D4D"/>
<path d="M369.9 160.5C370.54 160.5 371.1 160.26 371.56 159.8C372.03 159.34 372.26 158.78 372.26 158.14C372.26 157.5 372.02 156.94 371.56 156.48C371.09 156.01 370.53 155.78 369.9 155.78C369.27 155.78 368.7 156.02 368.24 156.48C367.77 156.95 367.54 157.51 367.54 158.14C367.54 158.77 367.78 159.34 368.24 159.8C368.7 160.27 369.26 160.5 369.9 160.5Z" fill="#4E4D4D"/>
<path d="M386.31 160.47C386.97 160.47 387.53 160.24 387.99 159.78C388.45 159.33 388.68 158.76 388.68 158.1C388.68 157.44 388.45 156.88 387.99 156.42C387.53 155.96 386.97 155.73 386.31 155.73C385.65 155.73 385.08 155.96 384.63 156.42C384.17 156.88 383.94 157.44 383.94 158.1C383.94 158.76 384.17 159.33 384.63 159.78C385.08 160.24 385.65 160.47 386.31 160.47Z" fill="#4E4D4D"/>
<path d="M380.44 160.47C381.1 160.47 381.67 160.24 382.12 159.78C382.58 159.33 382.81 158.76 382.81 158.1C382.81 157.44 382.58 156.87 382.12 156.42C381.66 155.96 381.1 155.73 380.44 155.73C379.78 155.73 379.22 155.96 378.76 156.42C378.3 156.88 378.07 157.44 378.07 158.1C378.07 158.76 378.3 159.33 378.76 159.78C379.21 160.24 379.78 160.47 380.44 160.47Z" fill="#4E4D4D"/>
<path d="M394.58 154.24V169.79C394.58 171.36 394.22 172.52 393.5 173.24C392.79 173.97 391.66 174.33 390.13 174.33C388.45 174.33 387.22 173.97 386.49 173.26C385.76 172.55 385.39 171.38 385.39 169.79V162.85H381.21V169.79C381.21 171.36 380.85 172.52 380.14 173.24C379.43 173.97 378.29 174.33 376.76 174.33C375.08 174.33 373.85 173.97 373.12 173.26C372.39 172.55 372.02 171.38 372.02 169.79V162.85H367.84V169.79C367.84 171.36 367.48 172.52 366.77 173.24C366.06 173.97 364.92 174.33 363.39 174.33C361.86 174.33 360.61 174.01 359.88 173.36C359.15 172.72 358.73 171.68 358.65 170.28C358.67 170.12 358.68 169.87 358.68 169.55C358.68 167.04 357.86 164.89 356.25 163.17C354.63 161.46 352.6 160.59 350.21 160.59C348.23 160.59 346.53 161.25 345.17 162.56C343.81 163.87 342.83 165.74 342.23 168.14C342.09 168.74 341.96 169.36 341.84 169.97C341.71 170.62 341.59 171.13 341.5 171.5C341.4 171.86 341.26 172.28 341.06 172.73C340.62 173.8 339.72 174.32 338.33 174.32H335.46C333.78 174.32 332.56 173.96 331.82 173.25C331.09 172.54 330.72 171.37 330.72 169.78V162.84H326.54V169.78C326.54 171.35 326.18 172.51 325.46 173.23C324.75 173.96 323.61 174.32 322.08 174.32C320.55 174.32 319.42 173.96 318.72 173.24C318.01 172.51 317.65 171.34 317.65 169.78V159.12H313.47V160.8C312.65 160.7 311.92 160.65 311.3 160.65C308.2 160.65 305.62 161.46 303.62 163.06C301.62 164.66 300.61 166.96 300.61 169.9C300.61 172.03 301.31 173.89 302.68 175.42C304.06 176.97 305.87 177.74 308.07 177.74C311.05 177.74 313.12 176.41 314.2 173.79C314.8 175.2 315.76 176.32 317.06 177.11C318.43 177.96 320.11 178.39 322.06 178.39C325.1 178.39 327.41 177.41 328.93 175.47C330.16 177.41 332.35 178.39 335.44 178.39H338.31C340.81 178.39 342.71 177.51 343.97 175.77C345.85 177.55 348.01 178.45 350.38 178.45C351.65 178.45 352.87 178.16 354.02 177.61C355.11 177.07 356.05 176.31 356.79 175.34C358 177.36 360.21 178.39 363.36 178.39C366.51 178.39 368.71 177.41 370.23 175.47C371.46 177.41 373.65 178.39 376.74 178.39C379.83 178.39 382.09 177.41 383.61 175.47C384.84 177.41 387.03 178.39 390.12 178.39C392.79 178.39 394.92 177.61 396.44 176.08C397.97 174.55 398.75 172.42 398.75 169.76V154.21H394.57L394.58 154.24ZM313.47 167.8C313.47 169.59 313.03 171.05 312.17 172.13C311.32 173.21 310.16 173.75 308.72 173.75C307.49 173.75 306.51 173.37 305.8 172.61C305.08 171.86 304.72 170.93 304.72 169.85C304.72 168.2 305.34 166.9 306.58 165.99C307.82 165.06 309.44 164.59 311.39 164.59C312.07 164.59 312.76 164.65 313.46 164.77V167.8H313.47ZM353.27 173.1C352.47 173.96 351.47 174.4 350.29 174.4C348.56 174.4 346.98 173.58 345.58 171.94C345.79 170.8 346.03 169.76 346.29 168.84C346.67 167.44 347.19 166.41 347.82 165.76C348.43 165.11 349.24 164.78 350.2 164.78C351.45 164.78 352.48 165.23 353.28 166.12C354.09 167 354.49 168.17 354.49 169.56C354.49 171.05 354.09 172.24 353.28 173.11L353.27 173.1Z" fill="#4E4D4D"/>
<path d="M407.14 154.24H402.96V178.42H407.14V154.24Z" fill="#4E4D4D"/>
<path d="M432.02 158.84C432.66 158.84 433.22 158.61 433.68 158.16C434.15 157.7 434.38 157.14 434.38 156.48C434.38 155.82 434.14 155.26 433.68 154.8C433.21 154.34 432.65 154.11 432.02 154.11C431.39 154.11 430.82 154.34 430.36 154.8C429.89 155.26 429.66 155.82 429.66 156.48C429.66 157.14 429.9 157.71 430.36 158.16C430.83 158.61 431.38 158.84 432.02 158.84Z" fill="#4E4D4D"/>
<path d="M441.06 163.3C439.49 161.51 437.46 160.61 435.02 160.61C432.41 160.61 430.3 161.55 428.77 163.4C427.24 165.24 426.46 167.41 426.46 169.86C426.46 172.17 427.17 174.18 428.56 175.87C429.96 177.56 431.89 178.43 434.31 178.43C436.43 178.43 438.12 177.6 439.32 175.97V177.17C439.32 179.6 438.66 181.35 437.36 182.38C436.05 183.41 433.85 183.93 430.83 183.93C425.02 183.93 422.07 181.49 422.07 176.68C422.07 175.65 422.18 174.57 422.39 173.47L422.42 173.33H418.57L418.55 173.41C418.18 174.95 417.99 176.36 417.99 177.61C417.99 181.07 419.2 183.71 421.59 185.47C423.97 187.22 427.08 188.11 430.83 188.11C434.91 188.11 438.06 187.17 440.2 185.34C442.35 183.5 443.44 180.75 443.44 177.16V170.47C443.44 167.5 442.64 165.09 441.08 163.29L441.06 163.3ZM437.75 173.16C436.91 173.94 435.99 174.34 435.02 174.34C433.65 174.34 432.55 173.86 431.75 172.91C430.94 171.96 430.54 170.83 430.54 169.56C430.54 168.29 430.94 167.16 431.73 166.21C432.52 165.26 433.61 164.78 434.96 164.78C436.18 164.78 437.21 165.25 438.04 166.2C438.87 167.15 439.29 168.51 439.32 170.23C439.13 171.39 438.61 172.39 437.76 173.17L437.75 173.16Z" fill="#4E4D4D"/>
<path d="M437.89 158.84C438.53 158.84 439.09 158.61 439.55 158.16C440.02 157.7 440.25 157.14 440.25 156.48C440.25 155.82 440.01 155.26 439.55 154.8C439.08 154.34 438.52 154.11 437.89 154.11C437.26 154.11 436.69 154.34 436.23 154.8C435.76 155.26 435.53 155.82 435.53 156.48C435.53 157.14 435.77 157.71 436.23 158.16C436.7 158.61 437.25 158.84 437.89 158.84Z" fill="#4E4D4D"/>
<path d="M462.3 163.3C460.73 161.51 458.7 160.61 456.26 160.61C453.58 160.61 451.45 161.55 449.92 163.4C448.4 165.24 447.63 167.41 447.63 169.86C447.63 172.31 448.32 174.21 449.71 175.89C451.1 177.57 453.06 178.43 455.54 178.43C457.66 178.43 459.35 177.6 460.55 175.97V176.09C460.55 178.2 460.02 179.78 458.99 180.77C457.94 181.76 456.33 182.27 454.17 182.27C453.23 182.27 452.25 182.19 451.29 182.04L451.15 182.02L451.12 185.94V186.04L451.22 186.06C452.58 186.32 453.87 186.45 455.06 186.45C458.08 186.45 460.46 185.55 462.14 183.77C463.82 181.99 464.67 179.42 464.67 176.12V170.48C464.67 167.51 463.87 165.1 462.31 163.3H462.3ZM459.08 173.02C458.22 173.9 457.27 174.34 456.26 174.34C454.82 174.34 453.69 173.87 452.9 172.93C452.11 171.99 451.71 170.85 451.71 169.56C451.71 168.27 452.11 167.14 452.89 166.2C453.67 165.26 454.78 164.78 456.2 164.78C457.38 164.78 458.39 165.22 459.19 166.09C460.01 166.96 460.46 168.22 460.55 169.82C460.45 171.07 459.95 172.15 459.08 173.03V173.02Z" fill="#4E4D4D"/>
<path d="M500.32 160.5C500.96 160.5 501.52 160.26 501.98 159.8C502.45 159.33 502.68 158.77 502.68 158.14C502.68 157.51 502.44 156.94 501.98 156.48C501.51 156.01 500.95 155.78 500.32 155.78C499.69 155.78 499.12 156.02 498.66 156.48C498.19 156.95 497.96 157.51 497.96 158.14C497.96 158.77 498.2 159.34 498.66 159.8C499.12 160.27 499.68 160.5 500.32 160.5Z" fill="#4E4D4D"/>
<path d="M530.67 163.33C528.62 161.54 526.09 160.63 523.16 160.63C520.82 160.63 518.78 161.15 517.09 162.16C515.53 163.1 514.28 164.43 513.38 166.11V160.6H509.23V174.33H507.17C505.49 174.33 504.26 173.97 503.53 173.26C502.8 172.55 502.43 171.38 502.43 169.79V162.85H498.25V169.79C498.25 171.36 497.89 172.52 497.18 173.24C496.47 173.97 495.33 174.33 493.8 174.33H490.03C488.48 174.33 487.32 174.03 486.58 173.43C485.85 172.83 485.42 171.86 485.32 170.53V170.14C485.32 167.2 484.18 164.85 481.94 163.15C479.71 161.46 476.63 160.6 472.77 160.6H470.69V164.78H472.7C475.62 164.78 477.78 165.24 479.14 166.15C480.47 167.05 481.14 168.43 481.14 170.25C481.14 171.73 480.78 172.8 480.08 173.41C479.36 174.03 478.13 174.35 476.4 174.35H468.88V178.43H476.43C479.73 178.43 482.15 177.5 483.64 175.67C484.89 177.5 487.04 178.43 490.04 178.43H493.81C496.86 178.43 499.16 177.45 500.68 175.51C501.91 177.45 504.1 178.43 507.19 178.43H525.16C527.83 178.43 529.96 177.67 531.48 176.18C533.01 174.69 533.79 172.65 533.79 170.13C533.79 167.43 532.74 165.16 530.68 163.35L530.67 163.33ZM528.53 173.29C527.82 173.98 526.68 174.34 525.15 174.34H513.36V173.65C513.44 171.2 514.46 169.08 516.37 167.38C518.29 165.68 520.57 164.81 523.16 164.81C525.04 164.81 526.6 165.31 527.8 166.29C528.99 167.26 529.6 168.55 529.6 170.11C529.6 171.53 529.24 172.6 528.53 173.29Z" fill="#4E4D4D"/>
<path d="M75.57 62.22C68.85 56.61 58.63 53.33 44.3 52.19C34.25 51.48 27.26 49.72 23.53 46.94C20.07 44.37 18.39 40.69 18.39 35.68C18.39 28.42 20.64 23.59 25.28 20.89C30.35 17.93 38.1 16.44 48.3 16.44C52.98 16.44 58.13 16.54 63.47 17.62C73.57 19.67 77.54 21.82 77.54 21.82L82.75 5.5L79.96 4.67001C69.94 1.70001 59.23 0.190002 48.14 0.190002C16.33 0.190002 0.210022 12.24 0.210022 36.01C0.210022 47.06 3.70998 55.2 10.6 60.22C17.24 65.06 27.55 67.9 42.12 68.92C51.86 69.62 58.7 71.69 62.45 75.05C66.1 78.33 67.87 82.52 67.87 87.85C67.87 94.98 65.52 99.79 60.68 102.55C55.39 105.57 47.47 107.1 37.15 107.1C26.02 107.1 16.74 105.75 9.57001 103.08L6.72998 102.02L1.73999 117.99L4.47998 118.85C14.3 121.94 25.35 123.5 37.32 123.5C69.55 123.5 85.9 111.45 85.9 87.68C85.9 76.5 82.43 67.93 75.58 62.21L75.57 62.22Z" fill="#4E4D4D"/>
<path d="M124.32 2.92999H106.94V121.24H124.32V2.92999Z" fill="#4E4D4D"/>
<path d="M240.56 33.92C238.32 26.13 234.71 19.87 229.82 15.32C224.99 10.83 219.16 7.60001 212.5 5.70001C206.03 3.86001 197.99 2.92999 188.62 2.92999H151.02V121.24H188.62C207.63 121.24 221.73 116.75 230.54 107.88C239.35 99.02 243.81 83.53 243.81 61.85C243.81 50.87 242.71 41.47 240.55 33.93L240.56 33.92ZM217.56 96.91C212.29 102.81 202.55 105.8 188.62 105.8H168.4V18.37H188.62C196.1 18.37 202.12 18.92 206.5 19.98C210.6 20.98 214.22 23.01 217.28 26.02C220.31 29 222.46 33.27 223.68 38.73C224.97 44.54 225.63 52.31 225.63 61.84C225.63 79.11 222.92 90.91 217.56 96.91Z" fill="#4E4D4D"/>
<path d="M341.8 18.37V2.92999H264.55V121.24H281.94V71.34H328.28V55.9H281.94V18.37H341.8Z" fill="#4E4D4D"/>
<path d="M431.25 2.73999L397.06 61.99L414.57 92.35H437.63L420.13 61.99L442.83 22.79H488.04L510.74 61.99L488.04 101.19H477.38L465.8 121.24H499.62L533.8 61.99L499.62 2.73999H431.25Z" fill="#60A534"/>
<path d="M387.22 2.73999L352.94 61.99L387.22 121.24H455.59L489.77 61.99L472.27 31.63H449.12L466.62 61.99L444.01 101.19H398.7L376.1 61.99L398.7 22.79H409.46L420.95 2.73999H387.22Z" fill="#60A534"/>
</svg>
