<svg width="88" height="88" viewBox="0 0 88 88" fill="none" xmlns="http://www.w3.org/2000/svg">
<path d="M44.4395 41.8301V59.6399M44.4395 41.8301L60.2694 34.8999M44.4395 41.8301L28.6095 34.8999M44.4395 22.04L22.6694 31.9399V55.6799L44.4395 65.5801L66.2095 55.6799V31.9399L44.4395 22.04ZM47.4995 8.18994L51.8994 1.29004L59.1294 3.40991L59.2694 11.96L64.5695 15.04L72.0494 10.8899L77.3495 16.1899L73.1995 23.6599L76.2594 28.96L84.8094 29.1001L86.9395 36.3301L80.0394 40.73V46.8501L86.9395 51.25L84.8195 58.48L76.2794 58.6299L73.1895 63.9299L77.3395 71.4099L72.0394 76.71L64.5695 72.5601L59.2694 75.6201L59.1294 84.1699L51.8994 86.3L47.4995 79.3999H41.3794L36.9795 86.3L29.7495 84.1799L29.6095 75.6399L24.3094 72.55L16.8295 76.7L11.5294 71.3999L15.6794 63.9299L12.6195 58.6299L4.06946 58.49L1.93945 51.26L8.83948 46.8601V40.74L1.93945 36.3401L4.05945 29.1101L12.6095 28.97L15.6895 23.6699L11.5394 16.1899L16.8395 10.8899L24.3094 15.04L29.6095 11.98L29.7495 3.42993L36.9795 1.29004L41.3794 8.18994H47.4995Z" stroke="white" stroke-width="2" stroke-linejoin="round"/>
</svg>
