<svg width="97" height="88" viewBox="0 0 97 88" fill="none" xmlns="http://www.w3.org/2000/svg">
<path d="M12.2799 62.97L18.7599 69.3L29.3499 58.95M33.2199 23.3301C33.2199 20.9001 34.0099 18.8701 40.3899 17.6201C46.1399 16.4901 54.2899 19.1699 60.1199 17.1799C65.9499 15.1999 73.4999 14.3299 79.8499 16.4099C84.1199 17.8099 91.5699 15.9401 95.9899 14.5601M85.2299 1.79004C80.8099 4.35004 73.3599 7.82998 69.0899 5.22998C62.7399 1.35998 55.1899 2.96991 49.3599 6.65991C43.5299 10.3499 35.3899 5.38998 29.6399 7.47998C23.2499 9.79998 22.4699 13.5701 22.4699 18.0801V23.3401M79.8499 65.4199V58.3999M70.8799 65.4199V58.3999M61.9099 65.4199V58.3999M52.9499 65.4199V58.3999M43.9799 65.4199V58.3999M35.0099 46.1299L51.1499 33.8501V46.1299H54.7399L70.8799 33.8501V46.1299H74.4699L90.6099 33.8501V72.4299H38.5999M20.6599 42.6201V26.8401H35.0099V48.3899M20.2499 41.21C20.2499 41.21 10.2499 48.8 1.8999 48.8V68.03C1.8999 72.03 3.5699 75.6299 6.3699 77.6499C9.2899 79.7699 18.0399 85.4099 18.4099 85.6399L20.2399 86.8201L22.0699 85.6399C22.4399 85.3999 31.1799 79.7699 34.1099 77.6499C36.9099 75.6299 38.5799 72.03 38.5799 68.03V48.8C30.2399 48.8 20.2299 41.21 20.2299 41.21H20.2499Z" stroke="white" stroke-width="2" stroke-linejoin="round"/>
</svg>
