<svg width="105" height="87" viewBox="0 0 105 87" fill="none" xmlns="http://www.w3.org/2000/svg">
<path d="M46.6199 48.22V58.1899M55.3699 43.8601L46.61 48.23M37.86 43.8601L46.6199 48.23M37.86 57.5701L46.61 61.9299L59.11 55.7V41.99L46.61 35.76L34.11 41.99V48.22M14.11 58.1899V86.8301M20.36 68.1599V86.8301M26.61 86.8301V55.7H34.11C37.88 55.7 39.11 53.48 39.11 50.71H15.35C10.87 50.71 9.09996 52.5899 9.09996 58.1899V66.9099C9.09996 69.5799 10.17 71.8899 12.85 71.8899M15.36 39.8501L5.63995 24.04L1.95996 22.45C1.95996 22.45 3.54995 16.21 3.91995 15.96C4.28995 15.71 10.8 15.71 10.8 15.71L12.7599 13.1399L18.78 10.5701L15.1 5.06006L25.17 1.77002L32.41 4.81006L48.74 18.52L61.02 20.1101L63.6 22.3201H65.81L69.74 26.6001V28.8L74.16 31.01V36.76L79.44 42.27H82.63L86.17 50.72L96.13 52.55L99.94 51.5701L103.26 55.6101L99.94 65.28L75.5099 73.72L67.8999 76.4099L61.5099 83.3799L57.83 80.8101L50.58 80.9299L41.74 79.5801L40.88 85.5801H39.28L31.91 74.6899L26.61 63.1201M20.36 46.98C23.22 46.98 25.36 44.5899 25.36 41.6399V39.8601C25.36 36.9101 23.22 34.52 20.36 34.52C17.5 34.52 15.36 36.9101 15.36 39.8601V41.6399C15.36 44.5899 17.5 46.98 20.36 46.98Z" stroke="white" stroke-width="2" stroke-linejoin="round"/>
</svg>
