<svg width="55" height="88" viewBox="0 0 55 88" fill="none" xmlns="http://www.w3.org/2000/svg">
<path d="M22.8306 18.4299V22.1299C22.8306 25.4399 15.6605 26.6301 15.6605 35.0701C15.6605 37.6201 16.5605 39.93 18.1105 41.78M22.4205 44.97C24.1405 45.73 26.1006 46.1499 28.2106 46.1499C34.6006 46.1499 37.9705 40.3999 38.9705 36.9099C39.5005 35.0599 35.9106 33.4101 35.3806 35.0601C34.7906 36.9101 32.5606 38.76 30.9006 38.76C28.4206 38.76 26.4205 36.6899 26.4205 34.1399C26.4205 32.6299 27.1206 31.2899 28.2106 30.4399C31.4006 28.0599 33.5906 26.5401 33.5906 22.5701V18.4299M4.90057 55.3999L22.8306 36.9099C24.2806 35.4099 24.6006 35.0001 26.5106 35.0601M36.3406 42.49L49.7205 55.3999M33.5806 62.8H21.0306V55.3999H33.5806V62.8ZM53.3005 86.8301H1.31055V55.3999H53.3005V86.8301ZM13.8605 1.79004V12.8799L19.2405 18.4299H37.1705L42.5505 12.8799V1.79004H13.8705H13.8605Z" stroke="white" stroke-width="2" stroke-linejoin="round"/>
</svg>
