<svg width="68" height="69" viewBox="0 0 68 69" fill="none" xmlns="http://www.w3.org/2000/svg">
<mask id="mask0_9_654" style="mask-type:luminance" maskUnits="userSpaceOnUse" x="0" y="0" width="68" height="69">
<path d="M67.6602 0.350098H0.660156V68.3799H67.6602V0.350098Z" fill="white"/>
</mask>
<g mask="url(#mask0_9_654)">
<path d="M40.1003 13.5601L39.6103 12.25C39.4303 11.76 39.2203 11.2701 39.0003 10.7801C40.1803 11.1101 41.3403 11.52 42.4603 12L40.1003 13.5601ZM26.8203 17.5701L24.4103 27.98C24.0403 27.71 23.6203 27.52 23.1603 27.42C22.3403 27.25 21.5003 27.4199 20.8003 27.8799L3.74028 39.17C3.71028 38.62 3.69028 38.0701 3.69028 37.5301C3.69028 30.8401 6.10027 24.3701 10.4803 19.3201C14.5703 14.6001 20.1803 11.38 26.2803 10.22C27.1803 12.55 27.3803 15.1401 26.8103 17.5601M17.7203 38.73C17.4203 38.93 17.2203 39.2401 17.1503 39.6001C17.0803 39.9501 17.1503 40.3102 17.3503 40.6102L28.6103 57.3999L20.2203 62.96C11.7703 59.2 5.61027 51.27 4.09027 42.17L14.0103 35.6202L15.0303 37.1399C15.4303 37.7399 16.3103 37.9101 16.9003 37.5101C17.2003 37.3101 17.4103 36.9999 17.4703 36.6499C17.5403 36.2899 17.4703 35.9399 17.2703 35.6399L16.2603 34.1299L22.3003 30.15C22.4003 30.09 22.5103 30.0701 22.6303 30.0901C22.7503 30.1101 22.8403 30.1801 22.9103 30.2801L36.8903 51.3999C36.9503 51.4999 36.9803 51.62 36.9503 51.73C36.9303 51.84 36.8603 51.9401 36.7603 52.0101L30.8603 55.92L19.5903 39.1202C19.3903 38.8202 19.0803 38.6201 18.7303 38.5501C18.3803 38.4801 18.0203 38.55 17.7203 38.75M43.8203 45.95C42.0703 45.67 40.3003 46.0501 38.8303 47.0301L37.7303 47.7601L26.5203 30.8401L29.4503 18.18C30.2203 14.84 29.8303 11.29 28.3403 8.2C28.3203 8.16 28.3003 8.12014 28.2903 8.09014C28.0003 7.51014 27.6803 6.93994 27.3203 6.38994C27.0303 5.94994 26.9303 5.43998 27.0403 4.92998C27.1403 4.41998 27.4403 3.97999 27.8703 3.68999C28.6303 3.18999 29.6503 3.27997 30.3003 3.91997L32.2803 5.84014C34.3903 7.89014 36.0503 10.43 37.0703 13.18L38.1603 16.1299L38.1903 16.2C38.2203 16.26 38.2503 16.3202 38.2803 16.3602C38.4803 16.6602 38.7903 16.87 39.1403 16.94C39.4903 17.01 39.8503 16.94 40.1503 16.74L51.2203 9.40996C51.7603 9.04996 52.4103 8.93011 53.0403 9.06011C53.6803 9.19011 54.2203 9.56015 54.5803 10.1001C54.9403 10.6401 55.0603 11.29 54.9303 11.92C54.8003 12.55 54.4303 13.1 53.9003 13.46L50.7803 15.5301L50.7403 15.5601C50.1603 15.9901 50.0103 16.7899 50.4103 17.3899C50.8203 18.0099 51.6603 18.1801 52.2903 17.7701L54.4303 16.3501C54.9703 15.9901 55.6203 15.87 56.2503 16C56.8903 16.13 57.4303 16.5001 57.7903 17.0401C58.1503 17.5801 58.2703 18.2302 58.1503 18.8602C58.0203 19.4902 57.6503 20.04 57.1103 20.4L54.0003 22.46C53.7003 22.66 53.5003 22.9601 53.4203 23.3201C53.3503 23.6701 53.4203 24.0301 53.6203 24.3301C54.0203 24.9301 54.8903 25.11 55.4903 24.71L57.6303 23.2901C58.7403 22.5601 60.2503 22.86 60.9903 23.98C61.7303 25.09 61.4203 26.6001 60.3103 27.3401L57.2003 29.4C56.5803 29.81 56.4103 30.6501 56.8203 31.2701C57.2203 31.8701 58.0903 32.05 58.6903 31.65L60.8403 30.23C61.3703 29.87 62.0203 29.7499 62.6603 29.8799C63.2903 30.0099 63.8403 30.38 64.2003 30.92C64.5603 31.46 64.6803 32.11 64.5503 32.74C64.4203 33.37 64.0503 33.9201 63.5103 34.2801L46.8603 45.3001C45.9503 45.9001 44.8603 46.14 43.7903 45.97M66.4803 29.41C65.8203 28.41 64.8403 27.6901 63.7103 27.3401C64.3903 25.7601 64.2403 23.93 63.2803 22.48C62.6203 21.48 61.6503 20.76 60.5103 20.41C60.6503 20.08 60.7603 19.74 60.8303 19.4C61.1003 18.0599 60.8303 16.6901 60.0803 15.5501C59.4203 14.5501 58.4403 13.83 57.3103 13.48C57.9903 11.9 57.8403 10.0602 56.8803 8.62016C55.3203 6.26016 52.1303 5.60998 49.7803 7.17998L45.1403 10.25C42.6503 9.01005 40.0003 8.11014 37.2603 7.59014C36.3703 6.25014 35.3403 5.00996 34.2003 3.90996L32.2203 1.99004C30.6603 0.480038 28.2203 0.259998 26.4203 1.45C25.3903 2.13 24.6803 3.17995 24.4303 4.39995C24.1903 5.55995 24.4003 6.74005 25.0103 7.75005C18.6303 9.14005 12.7803 12.6201 8.48027 17.5801C3.67027 23.1201 1.03027 30.2101 1.03027 37.5601C1.03027 38.9701 1.13028 40.38 1.32028 41.75C2.79028 52.42 9.90027 61.62 19.8703 65.75C23.5703 67.28 27.4903 68.0601 31.5303 68.0601C37.9303 68.0601 44.0503 66.0999 49.2403 62.3899C54.3203 58.7599 58.1203 53.76 60.2303 47.91C60.3503 47.57 60.3403 47.1999 60.1803 46.8799C60.0303 46.5499 59.7603 46.31 59.4203 46.18C59.0803 46.06 58.7103 46.08 58.3903 46.23C58.0603 46.39 57.8103 46.66 57.6903 47C55.7703 52.33 52.3003 56.88 47.6803 60.19C42.9503 63.57 37.3703 65.3501 31.5403 65.3501C28.7503 65.3501 26.0103 64.9399 23.3803 64.1399L38.3003 54.2601C39.0003 53.8001 39.4703 53.0901 39.6403 52.2701C39.8003 51.4901 39.6603 50.7101 39.2603 50.0301L40.3603 49.3001C41.2703 48.7001 42.3603 48.4699 43.4303 48.6399C45.1703 48.9199 46.9503 48.5401 48.4203 47.5601L59.1803 40.43C59.1003 41.18 59.0003 41.93 58.8603 42.67C58.7903 43.03 58.8603 43.38 59.0803 43.68C59.2803 43.98 59.5903 44.18 59.9503 44.24C60.6903 44.37 61.3903 43.88 61.5303 43.16C61.8103 41.66 61.9803 40.1101 62.0303 38.5501L65.0803 36.5301C66.2203 35.7801 67.0003 34.6201 67.2703 33.2801C67.5503 31.9401 67.2703 30.57 66.5203 29.43" fill="white"/>
<path d="M26.8203 17.5701L24.4103 27.98C24.0403 27.71 23.6203 27.52 23.1603 27.42C22.3403 27.25 21.5003 27.4199 20.8003 27.8799L3.74028 39.17C3.71028 38.62 3.69028 38.0701 3.69028 37.5301C3.69028 30.8401 6.10027 24.3701 10.4803 19.3201C14.5703 14.6001 20.1803 11.38 26.2803 10.22C27.1803 12.55 27.3803 15.1401 26.8103 17.5601M17.7203 38.73C17.4203 38.93 17.2203 39.2401 17.1503 39.6001C17.0803 39.9501 17.1503 40.3102 17.3503 40.6102L28.6103 57.3999L20.2203 62.96C11.7703 59.2 5.61027 51.27 4.09027 42.17L14.0103 35.6202L15.0303 37.1399C15.4303 37.7399 16.3103 37.9101 16.9003 37.5101C17.2003 37.3101 17.4103 36.9999 17.4703 36.6499C17.5403 36.2899 17.4703 35.9399 17.2703 35.6399L16.2603 34.1299L22.3003 30.15C22.4003 30.09 22.5103 30.0701 22.6303 30.0901C22.7503 30.1101 22.8403 30.1801 22.9103 30.2801L36.8903 51.3999C36.9503 51.4999 36.9803 51.62 36.9503 51.73C36.9303 51.84 36.8603 51.9401 36.7603 52.0101L30.8603 55.92L19.5903 39.1202C19.3903 38.8202 19.0803 38.6201 18.7303 38.5501C18.3803 38.4801 18.0203 38.55 17.7203 38.75M43.8203 45.95C42.0703 45.67 40.3003 46.0501 38.8303 47.0301L37.7303 47.7601L26.5203 30.8401L29.4503 18.18C30.2203 14.84 29.8303 11.29 28.3403 8.2C28.3203 8.16 28.3003 8.12014 28.2903 8.09014C28.0003 7.51014 27.6803 6.93994 27.3203 6.38994C27.0303 5.94994 26.9303 5.43998 27.0403 4.92998C27.1403 4.41998 27.4403 3.97999 27.8703 3.68999C28.6303 3.18999 29.6503 3.27997 30.3003 3.91997L32.2803 5.84014C34.3903 7.89014 36.0503 10.43 37.0703 13.18L38.1603 16.1299L38.1903 16.2C38.2203 16.26 38.2503 16.3202 38.2803 16.3602C38.4803 16.6602 38.7903 16.87 39.1403 16.94C39.4903 17.01 39.8503 16.94 40.1503 16.74L51.2203 9.40996C51.7603 9.04996 52.4103 8.93011 53.0403 9.06011C53.6803 9.19011 54.2203 9.56015 54.5803 10.1001C54.9403 10.6401 55.0603 11.29 54.9303 11.92C54.8003 12.55 54.4303 13.1 53.9003 13.46L50.7803 15.5301L50.7403 15.5601C50.1603 15.9901 50.0103 16.7899 50.4103 17.3899C50.8203 18.0099 51.6603 18.1801 52.2903 17.7701L54.4303 16.3501C54.9703 15.9901 55.6203 15.87 56.2503 16C56.8903 16.13 57.4303 16.5001 57.7903 17.0401C58.1503 17.5801 58.2703 18.2302 58.1503 18.8602C58.0203 19.4902 57.6503 20.04 57.1103 20.4L54.0003 22.46C53.7003 22.66 53.5003 22.9601 53.4203 23.3201C53.3503 23.6701 53.4203 24.0301 53.6203 24.3301C54.0203 24.9301 54.8903 25.11 55.4903 24.71L57.6303 23.2901C58.7403 22.5601 60.2503 22.86 60.9903 23.98C61.7303 25.09 61.4203 26.6001 60.3103 27.3401L57.2003 29.4C56.5803 29.81 56.4103 30.6501 56.8203 31.2701C57.2203 31.8701 58.0903 32.05 58.6903 31.65L60.8403 30.23C61.3703 29.87 62.0203 29.7499 62.6603 29.8799C63.2903 30.0099 63.8403 30.38 64.2003 30.92C64.5603 31.46 64.6803 32.11 64.5503 32.74C64.4203 33.37 64.0503 33.9201 63.5103 34.2801L46.8603 45.3001C45.9503 45.9001 44.8603 46.14 43.7903 45.97M66.4803 29.41C65.8203 28.41 64.8403 27.6901 63.7103 27.3401C64.3903 25.7601 64.2403 23.93 63.2803 22.48C62.6203 21.48 61.6503 20.76 60.5103 20.41C60.6503 20.08 60.7603 19.74 60.8303 19.4C61.1003 18.0599 60.8303 16.6901 60.0803 15.5501C59.4203 14.5501 58.4403 13.83 57.3103 13.48C57.9903 11.9 57.8403 10.0602 56.8803 8.62016C55.3203 6.26016 52.1303 5.60998 49.7803 7.17998L45.1403 10.25C42.6503 9.01005 40.0003 8.11014 37.2603 7.59014C36.3703 6.25014 35.3403 5.00996 34.2003 3.90996L32.2203 1.99004C30.6603 0.480038 28.2203 0.259998 26.4203 1.45C25.3903 2.13 24.6803 3.17995 24.4303 4.39995C24.1903 5.55995 24.4003 6.74005 25.0103 7.75005C18.6303 9.14005 12.7803 12.6201 8.48027 17.5801C3.67027 23.1201 1.03027 30.2101 1.03027 37.5601C1.03027 38.9701 1.13028 40.38 1.32028 41.75C2.79028 52.42 9.90027 61.62 19.8703 65.75C23.5703 67.28 27.4903 68.0601 31.5303 68.0601C37.9303 68.0601 44.0503 66.0999 49.2403 62.3899C54.3203 58.7599 58.1203 53.76 60.2303 47.91C60.3503 47.57 60.3403 47.1999 60.1803 46.8799C60.0303 46.5499 59.7603 46.31 59.4203 46.18C59.0803 46.06 58.7103 46.08 58.3903 46.23C58.0603 46.39 57.8103 46.66 57.6903 47C55.7703 52.33 52.3003 56.88 47.6803 60.19C42.9503 63.57 37.3703 65.3501 31.5403 65.3501C28.7503 65.3501 26.0103 64.9399 23.3803 64.1399L38.3003 54.2601C39.0003 53.8001 39.4703 53.0901 39.6403 52.2701C39.8003 51.4901 39.6603 50.7101 39.2603 50.0301L40.3603 49.3001C41.2703 48.7001 42.3603 48.4699 43.4303 48.6399C45.1703 48.9199 46.9503 48.5401 48.4203 47.5601L59.1803 40.43C59.1003 41.18 59.0003 41.93 58.8603 42.67C58.7903 43.03 58.8603 43.38 59.0803 43.68C59.2803 43.98 59.5903 44.18 59.9503 44.24C60.6903 44.37 61.3903 43.88 61.5303 43.16C61.8103 41.66 61.9803 40.1101 62.0303 38.5501L65.0803 36.5301C66.2203 35.7801 67.0003 34.6201 67.2703 33.2801C67.5503 31.9401 67.2703 30.57 66.5203 29.43M40.1003 13.5601L39.6103 12.25C39.4303 11.76 39.2203 11.2701 39.0003 10.7801C40.1803 11.1101 41.3403 11.52 42.4603 12L40.1003 13.5601Z" stroke="white" stroke-width="0.3" stroke-miterlimit="10"/>
</g>
</svg>
