<svg width="91" height="66" viewBox="0 0 91 66" fill="none" xmlns="http://www.w3.org/2000/svg">
<path d="M80.1602 25.7301L64.9002 10.6601L71.5202 4.12026L86.7802 19.1901L80.1602 25.7301ZM72.1502 30.1701C71.1602 31.1401 70.5202 32.3501 70.2802 33.6701C69.5702 37.5701 67.6902 41.1201 64.8602 43.9201L63.7702 45.0001L54.7702 36.1203C54.9602 36.1303 55.1602 36.14 55.3602 36.14C56.2702 36.14 57.2002 35.9803 58.1302 35.6103C58.8602 35.3203 59.2102 34.5002 58.9102 33.7802C58.6102 33.0602 57.7802 32.7202 57.0502 33.0102C53.3902 34.4902 49.0002 30.4201 48.5102 29.9401C48.5102 29.9401 48.4902 29.9301 48.4902 29.9201L48.3902 29.8302L47.1902 28.64L48.5502 27.3002C49.1102 26.7502 49.1102 25.8602 48.5502 25.3102C47.9902 24.7602 47.0902 24.7602 46.5402 25.3102L44.1802 27.64L38.7502 33.0001C37.6302 34.1001 35.8202 34.1001 34.7002 33.0001C34.1602 32.4701 33.8602 31.7601 33.8602 31.0001C33.8602 30.2401 34.1602 29.5402 34.7002 29.0102L44.0702 19.7602C44.5902 19.2402 45.1702 18.7901 45.8002 18.4101C47.2802 17.5001 48.9902 17.0302 50.7402 17.0302C52.0802 17.0302 53.4202 17.3203 54.6402 17.8603C57.4002 19.0903 60.6702 18.5201 62.7902 16.4301L64.7702 14.4801L76.4102 25.9801L72.1702 30.1701H72.1502ZM63.2002 51.13C62.8302 51.49 62.3502 51.6901 61.8302 51.6901C61.3102 51.6901 60.8202 51.49 60.4602 51.13L46.6602 37.5102C46.1002 36.9602 45.2002 36.9602 44.6502 37.5102C44.1002 38.0602 44.0902 38.9501 44.6502 39.5001L59.5202 54.1801C59.8802 54.5401 60.0902 55.0202 60.0902 55.5302C60.0902 56.0402 59.8902 56.52 59.5202 56.88C58.7702 57.62 57.5302 57.62 56.7802 56.88L54.2702 54.4C54.2702 54.4 54.2402 54.3703 54.2302 54.3603C54.2302 54.3603 54.2302 54.3602 54.2102 54.3502L42.6902 42.9701C42.1302 42.4201 41.2302 42.4201 40.6802 42.9701C40.1202 43.5201 40.1202 44.4101 40.6802 44.9501L52.2402 56.3703C52.5902 56.7303 52.7902 57.2001 52.7902 57.7101C52.7902 58.2201 52.5902 58.7002 52.2202 59.0602C51.4702 59.8102 50.2402 59.8102 49.4802 59.0602L36.9402 46.6801C36.3802 46.1301 35.4802 46.1301 34.9302 46.6801C34.3702 47.2301 34.3702 48.1201 34.9302 48.6701L44.2202 57.8502C44.5902 58.2102 44.7902 58.6901 44.7902 59.2001C44.7902 59.7101 44.5902 60.1902 44.2202 60.5502C43.8602 60.9102 43.3702 61.1103 42.8502 61.1103C42.7302 61.1103 42.6002 61.1002 42.4802 61.0702C42.7102 59.5402 42.2302 57.9301 41.0402 56.7501C40.0702 55.8001 38.7902 55.2702 37.4202 55.2702C37.3802 55.2702 37.3502 55.2702 37.3002 55.2702C37.3302 53.9402 36.8402 52.6002 35.8102 51.5902C34.8402 50.6402 33.5602 50.1103 32.1902 50.1103C32.1102 50.1103 32.0202 50.1103 31.9402 50.1103C32.0102 48.7403 31.5102 47.3302 30.4502 46.2802C29.1502 45.0002 27.3402 44.5601 25.6802 44.9401L24.6602 43.9301C21.8502 41.1601 19.9902 37.6502 19.2602 33.8002C18.9902 32.3902 18.3002 31.1002 17.2602 30.0702L14.7502 27.5902L29.0202 13.5102L32.5802 17.0202C33.9502 18.3702 35.8102 19.0902 37.7202 19.0902C38.5702 19.0902 39.4402 18.95 40.2702 18.65C40.6702 18.5 41.0902 18.4002 41.5102 18.3302L32.7002 27.0302C31.6202 28.0902 31.0302 29.5102 31.0302 31.0102C31.0302 32.5102 31.6202 33.9301 32.7002 34.9901C33.8102 36.0901 35.2702 36.64 36.7302 36.64C38.1902 36.64 39.6502 36.0901 40.7602 34.9901L45.1902 30.6203L46.3802 31.8002L46.4802 31.9C46.4802 31.9 46.5102 31.9301 46.5202 31.9401L63.2002 48.4101C63.5602 48.7701 63.7602 49.2502 63.7602 49.7602C63.7602 50.2702 63.5602 50.7503 63.2002 51.1103M39.0402 61.9101C38.6102 62.3301 38.0402 62.5702 37.4302 62.5702C36.8202 62.5702 36.2502 62.3301 35.8202 61.9101C34.9302 61.0301 34.9302 59.6101 35.8202 58.7401C36.2602 58.3001 36.8402 58.0802 37.4302 58.0802C38.0202 58.0802 38.5902 58.3001 39.0402 58.7401C39.9202 59.6101 39.9202 61.0401 39.0402 61.9101ZM33.8102 56.7501C33.3802 57.1701 32.8102 57.4101 32.2002 57.4101C31.5902 57.4101 31.0202 57.1701 30.5902 56.7501C29.7002 55.8801 29.7002 54.4502 30.5902 53.5802C31.0302 53.1402 31.6102 52.9201 32.2002 52.9201C32.7902 52.9201 33.3702 53.1402 33.8102 53.5802C34.7002 54.4602 34.7002 55.8801 33.8102 56.7501ZM28.4402 51.4501C27.5602 52.3301 26.1102 52.3301 25.2202 51.4501C24.7902 51.0301 24.5502 50.4603 24.5502 49.8603C24.5502 49.2603 24.7902 48.7002 25.2202 48.2702C25.6602 47.8302 26.2502 47.6103 26.8302 47.6103C27.4102 47.6103 27.9902 47.8302 28.4402 48.2702C29.3302 49.1502 29.3302 50.5701 28.4402 51.4401M11.2202 27.1203L4.60018 20.5802L21.8102 3.58022L28.4402 10.1203L11.2202 27.1203ZM89.8002 18.1901L72.5302 1.14004C71.9702 0.590039 71.0702 0.590039 70.5202 1.14004L61.8802 9.67007C61.6102 9.94007 61.4602 10.2901 61.4602 10.6601C61.4602 11.0301 61.6102 11.39 61.8802 11.65L62.7402 12.5001L60.7602 14.4501C59.4702 15.7201 57.4802 16.0702 55.7902 15.3102C54.2102 14.6102 52.4602 14.2301 50.7202 14.2301C48.6502 14.2301 46.6302 14.7401 44.8402 15.7101C44.0902 15.5301 43.3302 15.4401 42.5502 15.4401C41.4302 15.4401 40.3302 15.6302 39.2702 16.0102C37.5902 16.6102 35.7902 16.2402 34.5702 15.0402L31.0102 11.5302L31.4302 11.1103C31.7002 10.8403 31.8502 10.4903 31.8502 10.1103C31.8502 9.73025 31.7002 9.38026 31.4302 9.12026L22.7902 0.590234C22.2302 0.0402344 21.3402 0.0402344 20.7802 0.590234L1.5502 19.5802C1.0002 20.1302 1.0002 21.0202 1.5502 21.5702L10.1802 30.1002C10.4502 30.3602 10.8102 30.5102 11.1902 30.5102C11.5702 30.5102 11.9302 30.3602 12.2002 30.1002L12.7102 29.5902L15.2202 32.0602C15.8502 32.6802 16.2702 33.4702 16.4302 34.3102C17.2602 38.7202 19.4002 42.7301 22.6202 45.9101L23.0902 46.3703C22.1802 47.3203 21.6802 48.5502 21.6802 49.8502C21.6802 51.1502 22.2102 52.4701 23.1802 53.4301C24.1802 54.4201 25.4902 54.9101 26.8002 54.9101C26.8902 54.9101 26.9702 54.9101 27.0602 54.9101C26.9902 56.2901 27.4902 57.6901 28.5502 58.7401C29.5202 59.6901 30.8002 60.2201 32.1702 60.2201C32.2102 60.2201 32.2502 60.2201 32.2902 60.2201C32.2602 61.5501 32.7602 62.8901 33.7802 63.9101C34.7502 64.8601 36.0302 65.39 37.4002 65.39C38.7702 65.39 40.0502 64.8601 41.0202 63.9101C41.1002 63.8301 41.1802 63.7501 41.2502 63.6601C41.7502 63.8401 42.2902 63.9301 42.8202 63.9301C44.1002 63.9301 45.3002 63.4402 46.2002 62.5502C46.6802 62.0802 47.0502 61.5201 47.2802 60.9201L47.4202 61.0602C48.3502 61.9802 49.5802 62.4401 50.8002 62.4401C52.0202 62.4401 53.2502 61.9802 54.1802 61.0602C54.6702 60.5702 55.0502 59.9903 55.2902 59.3603C56.1202 59.9603 57.1102 60.2602 58.1002 60.2602C59.3202 60.2602 60.5502 59.8 61.4802 58.88C62.3802 57.99 62.8802 56.8002 62.8802 55.5402C62.8802 55.1602 62.8302 54.7901 62.7402 54.4201C63.6502 54.2401 64.4902 53.8 65.1602 53.13C66.0702 52.24 66.5602 51.0502 66.5602 49.7902C66.5602 48.8002 66.2502 47.8502 65.6802 47.0602L66.8202 45.9301C70.0702 42.7201 72.2202 38.6601 73.0402 34.1901C73.1702 33.4401 73.5502 32.7501 74.1302 32.1801L78.3702 27.9901L79.1202 28.7301C79.4002 29.0001 79.7602 29.14 80.1302 29.14C80.5002 29.14 80.8602 29.0001 81.1402 28.7301L89.7702 20.2001C90.0402 19.9401 90.1902 19.5801 90.1902 19.2101C90.1902 18.8401 90.0402 18.4801 89.7702 18.2201" fill="white"/>
<path d="M63.2002 51.13C62.8302 51.49 62.3502 51.6901 61.8302 51.6901C61.3102 51.6901 60.8202 51.49 60.4602 51.13L46.6602 37.5102C46.1002 36.9602 45.2002 36.9602 44.6502 37.5102C44.1002 38.0602 44.0902 38.9501 44.6502 39.5001L59.5202 54.1801C59.8802 54.5401 60.0902 55.0202 60.0902 55.5302C60.0902 56.0402 59.8902 56.52 59.5202 56.88C58.7702 57.62 57.5302 57.62 56.7802 56.88L54.2702 54.4C54.2702 54.4 54.2402 54.3703 54.2302 54.3603C54.2302 54.3603 54.2302 54.3602 54.2102 54.3502L42.6902 42.9701C42.1302 42.4201 41.2302 42.4201 40.6802 42.9701C40.1202 43.5201 40.1202 44.4101 40.6802 44.9501L52.2402 56.3703C52.5902 56.7303 52.7902 57.2001 52.7902 57.7101C52.7902 58.2201 52.5902 58.7002 52.2202 59.0602C51.4702 59.8102 50.2402 59.8102 49.4802 59.0602L36.9402 46.6801C36.3802 46.1301 35.4802 46.1301 34.9302 46.6801C34.3702 47.2301 34.3702 48.1201 34.9302 48.6701L44.2202 57.8502C44.5902 58.2102 44.7902 58.6901 44.7902 59.2001C44.7902 59.7101 44.5902 60.1902 44.2202 60.5502C43.8602 60.9102 43.3702 61.1103 42.8502 61.1103C42.7302 61.1103 42.6002 61.1002 42.4802 61.0702C42.7102 59.5402 42.2302 57.9301 41.0402 56.7501C40.0702 55.8001 38.7902 55.2702 37.4202 55.2702C37.3802 55.2702 37.3502 55.2702 37.3002 55.2702C37.3302 53.9402 36.8402 52.6002 35.8102 51.5902C34.8402 50.6402 33.5602 50.1103 32.1902 50.1103C32.1102 50.1103 32.0202 50.1103 31.9402 50.1103C32.0102 48.7403 31.5102 47.3302 30.4502 46.2802C29.1502 45.0002 27.3402 44.5601 25.6802 44.9401L24.6602 43.9301C21.8502 41.1601 19.9902 37.6502 19.2602 33.8002C18.9902 32.3902 18.3002 31.1002 17.2602 30.0702L14.7502 27.5902L29.0202 13.5102L32.5802 17.0202C33.9502 18.3702 35.8102 19.0902 37.7202 19.0902C38.5702 19.0902 39.4402 18.95 40.2702 18.65C40.6702 18.5 41.0902 18.4002 41.5102 18.3302L32.7002 27.0302C31.6202 28.0902 31.0302 29.5102 31.0302 31.0102C31.0302 32.5102 31.6202 33.9301 32.7002 34.9901C33.8102 36.0901 35.2702 36.64 36.7302 36.64C38.1902 36.64 39.6502 36.0901 40.7602 34.9901L45.1902 30.6203L46.3802 31.8002L46.4802 31.9C46.4802 31.9 46.5102 31.9301 46.5202 31.9401L63.2002 48.4101C63.5602 48.7701 63.7602 49.2502 63.7602 49.7602C63.7602 50.2702 63.5602 50.7503 63.2002 51.1103M28.4402 51.4501C27.5602 52.3301 26.1102 52.3301 25.2202 51.4501C24.7902 51.0301 24.5502 50.4603 24.5502 49.8603C24.5502 49.2603 24.7902 48.7002 25.2202 48.2702C25.6602 47.8302 26.2502 47.6103 26.8302 47.6103C27.4102 47.6103 27.9902 47.8302 28.4402 48.2702C29.3302 49.1502 29.3302 50.5701 28.4402 51.4401M89.8002 18.1901L72.5302 1.14004C71.9702 0.590039 71.0702 0.590039 70.5202 1.14004L61.8802 9.67007C61.6102 9.94007 61.4602 10.2901 61.4602 10.6601C61.4602 11.0301 61.6102 11.39 61.8802 11.65L62.7402 12.5001L60.7602 14.4501C59.4702 15.7201 57.4802 16.0702 55.7902 15.3102C54.2102 14.6102 52.4602 14.2301 50.7202 14.2301C48.6502 14.2301 46.6302 14.7401 44.8402 15.7101C44.0902 15.5301 43.3302 15.4401 42.5502 15.4401C41.4302 15.4401 40.3302 15.6302 39.2702 16.0102C37.5902 16.6102 35.7902 16.2402 34.5702 15.0402L31.0102 11.5302L31.4302 11.1103C31.7002 10.8403 31.8502 10.4903 31.8502 10.1103C31.8502 9.73025 31.7002 9.38026 31.4302 9.12026L22.7902 0.590234C22.2302 0.0402344 21.3402 0.0402344 20.7802 0.590234L1.5502 19.5802C1.0002 20.1302 1.0002 21.0202 1.5502 21.5702L10.1802 30.1002C10.4502 30.3602 10.8102 30.5102 11.1902 30.5102C11.5702 30.5102 11.9302 30.3602 12.2002 30.1002L12.7102 29.5902L15.2202 32.0602C15.8502 32.6802 16.2702 33.4702 16.4302 34.3102C17.2602 38.7202 19.4002 42.7301 22.6202 45.9101L23.0902 46.3703C22.1802 47.3203 21.6802 48.5502 21.6802 49.8502C21.6802 51.1502 22.2102 52.4701 23.1802 53.4301C24.1802 54.4201 25.4902 54.9101 26.8002 54.9101C26.8902 54.9101 26.9702 54.9101 27.0602 54.9101C26.9902 56.2901 27.4902 57.6901 28.5502 58.7401C29.5202 59.6901 30.8002 60.2201 32.1702 60.2201C32.2102 60.2201 32.2502 60.2201 32.2902 60.2201C32.2602 61.5501 32.7602 62.8901 33.7802 63.9101C34.7502 64.8601 36.0302 65.39 37.4002 65.39C38.7702 65.39 40.0502 64.8601 41.0202 63.9101C41.1002 63.8301 41.1802 63.7501 41.2502 63.6601C41.7502 63.8401 42.2902 63.9301 42.8202 63.9301C44.1002 63.9301 45.3002 63.4402 46.2002 62.5502C46.6802 62.0802 47.0502 61.5201 47.2802 60.9201L47.4202 61.0602C48.3502 61.9802 49.5802 62.4401 50.8002 62.4401C52.0202 62.4401 53.2502 61.9802 54.1802 61.0602C54.6702 60.5702 55.0502 59.9903 55.2902 59.3603C56.1202 59.9603 57.1102 60.2602 58.1002 60.2602C59.3202 60.2602 60.5502 59.8 61.4802 58.88C62.3802 57.99 62.8802 56.8002 62.8802 55.5402C62.8802 55.1602 62.8302 54.7901 62.7402 54.4201C63.6502 54.2401 64.4902 53.8 65.1602 53.13C66.0702 52.24 66.5602 51.0502 66.5602 49.7902C66.5602 48.8002 66.2502 47.8502 65.6802 47.0602L66.8202 45.9301C70.0702 42.7201 72.2202 38.6601 73.0402 34.1901C73.1702 33.4401 73.5502 32.7501 74.1302 32.1801L78.3702 27.9901L79.1202 28.7301C79.4002 29.0001 79.7602 29.14 80.1302 29.14C80.5002 29.14 80.8602 29.0001 81.1402 28.7301L89.7702 20.2001C90.0402 19.9401 90.1902 19.5801 90.1902 19.2101C90.1902 18.8401 90.0402 18.4801 89.7702 18.2201M80.1602 25.7301L64.9002 10.6601L71.5202 4.12026L86.7802 19.1901L80.1602 25.7301ZM72.1502 30.1701C71.1602 31.1401 70.5202 32.3501 70.2802 33.6701C69.5702 37.5701 67.6902 41.1201 64.8602 43.9201L63.7702 45.0001L54.7702 36.1203C54.9602 36.1303 55.1602 36.14 55.3602 36.14C56.2702 36.14 57.2002 35.9803 58.1302 35.6103C58.8602 35.3203 59.2102 34.5002 58.9102 33.7802C58.6102 33.0602 57.7802 32.7202 57.0502 33.0102C53.3902 34.4902 49.0002 30.4201 48.5102 29.9401C48.5102 29.9401 48.4902 29.9301 48.4902 29.9201L48.3902 29.8302L47.1902 28.64L48.5502 27.3002C49.1102 26.7502 49.1102 25.8602 48.5502 25.3102C47.9902 24.7602 47.0902 24.7602 46.5402 25.3102L44.1802 27.64L38.7502 33.0001C37.6302 34.1001 35.8202 34.1001 34.7002 33.0001C34.1602 32.4701 33.8602 31.7601 33.8602 31.0001C33.8602 30.2401 34.1602 29.5402 34.7002 29.0102L44.0702 19.7602C44.5902 19.2402 45.1702 18.7901 45.8002 18.4101C47.2802 17.5001 48.9902 17.0302 50.7402 17.0302C52.0802 17.0302 53.4202 17.3203 54.6402 17.8603C57.4002 19.0903 60.6702 18.5201 62.7902 16.4301L64.7702 14.4801L76.4102 25.9801L72.1702 30.1701H72.1502ZM39.0402 61.9101C38.6102 62.3301 38.0402 62.5702 37.4302 62.5702C36.8202 62.5702 36.2502 62.3301 35.8202 61.9101C34.9302 61.0301 34.9302 59.6101 35.8202 58.7401C36.2602 58.3001 36.8402 58.0802 37.4302 58.0802C38.0202 58.0802 38.5902 58.3001 39.0402 58.7401C39.9202 59.6101 39.9202 61.0401 39.0402 61.9101ZM33.8102 56.7501C33.3802 57.1701 32.8102 57.4101 32.2002 57.4101C31.5902 57.4101 31.0202 57.1701 30.5902 56.7501C29.7002 55.8801 29.7002 54.4502 30.5902 53.5802C31.0302 53.1402 31.6102 52.9201 32.2002 52.9201C32.7902 52.9201 33.3702 53.1402 33.8102 53.5802C34.7002 54.4602 34.7002 55.8801 33.8102 56.7501ZM11.2202 27.1203L4.60018 20.5802L21.8102 3.58022L28.4402 10.1203L11.2202 27.1203Z" stroke="white" stroke-width="0.3" stroke-miterlimit="10"/>
</svg>
