<svg width="68" height="69" viewBox="0 0 68 69" fill="none" xmlns="http://www.w3.org/2000/svg">
<path d="M16.0197 24.7398L14.0297 24.5499C12.5297 24.4399 11.2797 23.4899 10.8597 22.1199C10.2397 20.3599 10.9397 18.4997 12.5197 17.6297L13.9998 21.2198C14.5198 22.4598 15.2297 23.6898 16.0197 24.7298M41.7498 6.36994C42.3598 6.29994 42.9297 6.36992 43.5997 6.59992C45.3097 7.34992 46.1096 9.37972 45.3896 11.1497C45.3196 11.3597 45.1897 11.5298 45.0497 11.7198C44.9897 11.8098 44.9197 11.8898 44.8597 11.9898L43.7498 13.3797C43.6398 12.4697 43.4398 11.5598 43.1198 10.4998L41.7498 6.3797V6.36994ZM35.0997 26.7899L35.0397 26.8499L36.0096 29.4398L32.3097 30.9798L31.2596 28.3599L31.2297 28.2798L26.3197 27.8299C21.7697 27.3899 17.9497 24.5199 16.3397 20.3399L13.4897 13.0999C13.3897 12.8499 13.3897 12.5599 13.4897 12.3199C13.5797 12.0999 13.7497 11.9399 13.9497 11.8599L37.0997 3.51984C37.3997 3.41984 37.5898 3.41984 37.8698 3.51984C38.0898 3.62984 38.2597 3.83992 38.3497 4.09992L40.7596 11.3399C42.0696 15.3699 41.2197 19.6699 38.4797 22.8399L35.0797 26.7899H35.0997ZM30.9497 34.7198C31.0097 34.5498 31.1697 34.1599 31.5297 34.0399L43.8197 28.7698C44.0597 28.6798 44.3197 28.6698 44.5597 28.7598C44.7997 28.8498 44.9797 29.0198 45.0697 29.2398L45.8997 31.4097L40.6597 33.1199L40.5297 33.1597L41.2697 35.5098L46.6497 33.7498L47.8698 37.0098L42.8497 38.7198L42.7197 38.7598L43.4597 41.1099L48.7297 39.3499L49.9497 42.5999L45.0397 44.1998L44.9097 44.2498L45.6497 46.5999L50.8197 44.8399L51.3197 46.1397C51.4197 46.3797 51.4197 46.6199 51.3197 46.8299C51.2397 47.0299 51.0697 47.1898 50.8297 47.2799L42.1597 51.5599C41.9697 51.6599 41.7697 51.6597 41.5797 51.6597L34.1997 50.7899L30.1797 38.7298L30.9397 34.7198H30.9497ZM43.1697 53.8997L44.8997 53.0799L46.5397 56.8699L42.8597 58.0999L41.5497 54.2698C42.1297 54.3298 42.6597 54.1997 43.1697 53.8997ZM39.7997 64.0799L43.5096 60.5899L48.1797 59.0699H52.5497C53.0297 59.0699 53.3197 59.2397 53.5197 59.6497L53.6897 60.1798L39.8796 65.6797L39.6198 65.1597C39.5298 64.7897 39.5997 64.3899 39.7997 64.0899M23.1097 54.9097L19.4697 43.9798L21.7397 43.0899L24.4797 51.4197L26.8297 50.6798L23.9697 42.1099L28.0997 40.4598L31.7498 51.2799L23.1198 54.9097H23.1097ZM52.7596 56.7098H49.2297L47.3397 52.1898L52.0497 49.8299C53.6097 49.0499 54.3496 47.2299 53.7596 45.5999L47.4998 28.8099C46.8398 27.0599 44.9397 26.1798 43.0697 26.7498C42.9897 26.7498 42.8997 26.8097 42.8698 26.8997L38.4597 28.7899L37.8896 27.3499L40.3597 24.4498C42.1297 22.4598 43.2297 20.0197 43.5697 17.3897L46.7197 13.5799C48.7997 11.1699 48.4497 7.43983 45.9297 5.25983C45.4897 4.93983 45.0397 4.58994 44.5897 4.36994C43.3897 3.82994 42.1796 3.70982 40.8896 3.99982L40.5997 3.1297C40.3297 2.2597 39.7196 1.55974 38.8796 1.16974C38.0396 0.769741 37.0898 0.729888 36.2498 1.06989L13.0897 9.40973C12.1797 9.74973 11.4697 10.4198 11.0897 11.2698C10.7397 12.0598 10.7197 12.9398 11.0297 13.7298V13.8099L11.5397 15.1697C8.75967 16.5197 7.38966 19.8298 8.39966 22.7498C9.17966 24.9698 11.1497 26.5597 13.5597 26.8997L18.6797 27.4498C20.7997 28.9998 23.3497 29.9798 25.8597 30.1998L29.3997 30.5198L29.9797 31.9798C29.2297 32.4498 28.6997 33.2398 28.4797 34.1998L27.7297 37.8599L1.01965 48.6998L0.899658 48.7498L1.75964 51.0899L17.1198 44.9498L20.7697 55.8797L1.01965 64.0599L0.889648 64.1099L1.87964 66.3399L33.4697 53.2398L38.8397 53.8897L40.7596 59.7598L38.1897 62.2198C37.1297 63.1598 36.8196 64.6398 37.3796 65.9998L38.5297 68.8699L56.9998 61.6297L55.9697 58.8699C55.5197 57.5299 54.2997 56.6898 52.7697 56.6898" fill="white"/>
<path d="M54.0101 13.6099C54.9701 12.9899 55.7701 12.1997 56.3801 11.2297C56.9901 12.1997 57.7901 12.9899 58.7601 13.6099C57.8001 14.2199 57.0001 15.0197 56.3801 15.9797C55.7701 15.0197 54.9701 14.2199 54.0101 13.6099ZM55.1501 20.1897V21.4297H57.6202V20.1897C57.6202 17.1897 59.9702 14.8398 62.9702 14.8398H63.1102V12.3699H62.9702C59.9702 12.3699 57.6202 10.0198 57.6202 7.01978V5.77979H55.1501V7.01978C55.1501 10.0198 52.8002 12.3699 49.8002 12.3699H49.6602V14.8398H49.8002C52.8002 14.8398 55.1501 17.1897 55.1501 20.1897Z" fill="white"/>
<path d="M5.71997 35.5498C6.67997 34.9398 7.47997 34.1397 8.08997 33.1797C8.69997 34.1497 9.49996 34.9398 10.46 35.5498C9.49996 36.1598 8.69997 36.9597 8.08997 37.9197C7.47997 36.9597 6.67997 36.1598 5.71997 35.5498ZM6.85999 42.1396V43.3796H9.32996V42.1396C9.32996 39.1396 11.6799 36.7898 14.6799 36.7898H14.8199V34.3198H14.6799C11.6799 34.3198 9.32996 31.9697 9.32996 28.9697V27.7297H6.85999V28.9697C6.85999 31.9697 4.50989 34.3198 1.50989 34.3198H1.37988V36.7898H1.50989C4.50989 36.7898 6.85999 39.1396 6.85999 42.1396Z" fill="white"/>
<path d="M63.1498 35.5498C62.1898 36.1598 61.3898 36.9597 60.7798 37.9197C60.1598 36.9597 59.3698 36.1598 58.3998 35.5498C59.3598 34.9398 60.1598 34.1397 60.7798 33.1797C61.3898 34.1397 62.1898 34.9398 63.1498 35.5498ZM67.3599 34.3198C64.3599 34.3198 62.0098 31.9697 62.0098 28.9697V27.7297H59.5398V28.9697C59.5398 31.9697 57.1898 34.3198 54.1898 34.3198H54.0498V36.7898H54.1898C57.1898 36.7898 59.5398 39.1396 59.5398 42.1396V43.3699H62.0098V42.1396C62.0098 39.1396 64.3599 36.7898 67.3599 36.7898H67.4899V34.3198H67.3599Z" fill="white"/>
<path d="M35.3295 6.28979L32.9795 7.80981H33.3894C34.0094 8.56981 37.9895 15.9997 33.5695 20.4197L33.4695 20.5198L35.1995 22.2498L35.2994 22.1497C41.2194 16.2197 36.0394 6.99987 35.4094 6.36987L35.3295 6.28979Z" fill="white"/>
</svg>
