<svg width="71" height="69" viewBox="0 0 71 69" fill="none" xmlns="http://www.w3.org/2000/svg">
<path d="M13.3999 61.8298H10.8799V64.3599H13.3999V61.8298Z" fill="white"/>
<path d="M13.3999 61.8298H10.8799V64.3599H13.3999V61.8298Z" fill="white"/>
<path d="M38.12 59.8399C38.67 59.8399 39.12 60.2899 39.12 60.8399C39.12 61.3899 38.67 61.8399 38.12 61.8399H32.34V64.3599H34.73C35.28 64.3599 35.72 64.8099 35.72 65.3599C35.72 65.9099 35.27 66.3599 34.73 66.3599H30.74C27.63 66.3599 24.52 65.6198 21.74 64.2298C21.57 64.1398 21.3699 64.0899 21.1799 64.0899H17.9199V53.0599H19.37C20.93 53.0599 22.37 52.2798 23.24 50.9898L25.2999 47.8997C26.4099 46.2297 28.67 45.7797 30.34 46.8897C30.86 47.2397 31.2799 47.7198 31.5699 48.2698H28.96V50.7898H39.2599C39.8099 50.7898 40.2599 51.2398 40.2599 51.7898C40.2599 52.3398 39.8099 52.7898 39.2599 52.7898H34.61V55.3199H41.5199C42.0699 55.3199 42.5199 55.7699 42.5199 56.3199C42.5199 56.8699 42.0699 57.3199 41.5199 57.3199H33.48V59.8399H38.1299H38.12ZM42.5699 52.9698C42.8599 52.1298 42.83 51.2297 42.48 50.4097C42.11 49.5497 41.4199 48.8798 40.5499 48.5298C40.1399 48.3598 39.6999 48.2798 39.2599 48.2798H34.3799L33.8199 47.1697C32.2999 44.1297 28.5999 42.8897 25.5599 44.4097C24.5999 44.8897 23.7799 45.6098 23.1899 46.4998L21.1299 49.5899C20.7299 50.1799 20.07 50.5398 19.36 50.5398H17.9199V49.5398C17.9199 48.8498 17.3499 48.2798 16.6599 48.2798H0.709961V50.7999H15.3899V66.3499H0.709961V68.8699H16.6599C17.3599 68.8699 17.9199 68.2999 17.9199 67.6099V66.6099H20.8799C23.9399 68.0899 27.35 68.8699 30.74 68.8699H34.73C36.67 68.8699 38.25 67.2899 38.25 65.3499C38.25 65.0099 38.2 64.6799 38.1 64.3499H38.11C39.05 64.3499 39.94 63.9799 40.6 63.3199C41.27 62.6499 41.6299 61.7699 41.6299 60.8299C41.6299 60.4899 41.58 60.1499 41.49 59.8299H41.5C43.44 59.8299 45.0199 58.2499 45.0199 56.3099C45.0199 54.7799 44.0199 53.4198 42.5699 52.9598" fill="white"/>
<path d="M38.12 59.8399C38.67 59.8399 39.12 60.2899 39.12 60.8399C39.12 61.3899 38.67 61.8399 38.12 61.8399H32.34V64.3599H34.73C35.28 64.3599 35.72 64.8099 35.72 65.3599C35.72 65.9099 35.27 66.3599 34.73 66.3599H30.74C27.63 66.3599 24.52 65.6198 21.74 64.2298C21.57 64.1398 21.3699 64.0899 21.1799 64.0899H17.9199V53.0599H19.37C20.93 53.0599 22.37 52.2798 23.24 50.9898L25.2999 47.8997C26.4099 46.2297 28.67 45.7797 30.34 46.8897C30.86 47.2397 31.2799 47.7198 31.5699 48.2698H28.96V50.7898H39.2599C39.8099 50.7898 40.2599 51.2398 40.2599 51.7898C40.2599 52.3398 39.8099 52.7898 39.2599 52.7898H34.61V55.3199H41.5199C42.0699 55.3199 42.5199 55.7699 42.5199 56.3199C42.5199 56.8699 42.0699 57.3199 41.5199 57.3199H33.48V59.8399H38.1299H38.12ZM42.5699 52.9698C42.8599 52.1298 42.83 51.2297 42.48 50.4097C42.11 49.5497 41.4199 48.8798 40.5499 48.5298C40.1399 48.3598 39.6999 48.2798 39.2599 48.2798H34.3799L33.8199 47.1697C32.2999 44.1297 28.5999 42.8897 25.5599 44.4097C24.5999 44.8897 23.7799 45.6098 23.1899 46.4998L21.1299 49.5899C20.7299 50.1799 20.07 50.5398 19.36 50.5398H17.9199V49.5398C17.9199 48.8498 17.3499 48.2798 16.6599 48.2798H0.709961V50.7999H15.3899V66.3499H0.709961V68.8699H16.6599C17.3599 68.8699 17.9199 68.2999 17.9199 67.6099V66.6099H20.8799C23.9399 68.0899 27.35 68.8699 30.74 68.8699H34.73C36.67 68.8699 38.25 67.2899 38.25 65.3499C38.25 65.0099 38.2 64.6799 38.1 64.3499H38.11C39.05 64.3499 39.94 63.9799 40.6 63.3199C41.27 62.6499 41.6299 61.7699 41.6299 60.8299C41.6299 60.4899 41.58 60.1499 41.49 59.8299H41.5C43.44 59.8299 45.0199 58.2499 45.0199 56.3099C45.0199 54.7799 44.0199 53.4198 42.5699 52.9598" fill="white"/>
<path d="M33.7402 4.36987C33.7402 3.81987 34.1902 3.36987 34.7402 3.36987C35.2902 3.36987 35.7402 3.81987 35.7402 4.36987V39.2498H33.7502V4.36987H33.7402ZM45.0302 25.8398V23.6997H53.9302C54.4802 23.6997 54.9302 24.1497 54.9302 24.6997C54.9302 25.2497 54.4802 25.6997 53.9302 25.6997H46.0201C45.6801 25.6997 45.3501 25.7498 45.0201 25.8398M46.0302 28.2197H53.9402C55.8802 28.2197 57.4602 26.6397 57.4602 24.6997V11.2798H66.2302V30.2097H46.0302C45.4802 30.2097 45.0302 29.7597 45.0302 29.2097C45.0302 28.6597 45.4802 28.2197 46.0302 28.2197ZM38.2601 21.1797V6.75977H53.9402C54.4902 6.75977 54.9402 7.20977 54.9402 7.75977V21.3298C54.6202 21.2298 54.2802 21.1797 53.9402 21.1797H38.2601ZM71.0101 39.2498H52.8102C52.1102 39.2498 51.5502 39.8198 51.5502 40.5098V41.5098H50.1002C49.3902 41.5098 48.7302 41.1598 48.3302 40.5598L46.2802 37.4697C44.5202 34.8397 41.0301 33.9697 38.2601 35.4497V23.6997H42.5101V29.2097C42.5101 31.1497 44.0902 32.7297 46.0302 32.7297H67.4902C68.1902 32.7297 68.7502 32.1597 68.7502 31.4697V10.0098C68.7502 9.30977 68.1802 8.74976 67.4902 8.74976H57.4602V7.74976C57.4602 5.80976 55.8802 4.22974 53.9402 4.22974H38.2601C38.1901 2.34974 36.6402 0.839844 34.7402 0.839844C32.8402 0.839844 31.2202 2.41986 31.2202 4.35986V39.2397H30.2202C28.2802 39.2397 26.7002 40.8198 26.7002 42.7598V42.8896H29.2302V42.7598C29.2302 42.2098 29.6802 41.7598 30.2302 41.7598H40.5302V39.2397H38.2701V38.6797C39.4701 37.0997 41.7302 36.7797 43.3302 37.9597C43.6702 38.2097 43.9602 38.5099 44.1902 38.8599L46.2502 41.9497C47.1102 43.2497 48.5502 44.0198 50.1102 44.0198H51.5602V55.0498H48.3002C48.1102 55.0498 47.9102 55.0997 47.7302 55.1797C47.0502 55.5297 46.3302 55.8298 45.6102 56.0898L45.4802 56.1396L46.3402 58.5098L46.4602 58.4597C47.1802 58.1997 47.8902 57.8998 48.5802 57.5698H51.5502V58.5698C51.5502 59.2698 52.1102 59.8298 52.8102 59.8298H71.0101V57.2998H54.0702V41.7498H71.0101V39.2297V39.2498Z" fill="white"/>
<path d="M33.7402 4.36987C33.7402 3.81987 34.1902 3.36987 34.7402 3.36987C35.2902 3.36987 35.7402 3.81987 35.7402 4.36987V39.2498H33.7502V4.36987H33.7402ZM45.0302 25.8398V23.6997H53.9302C54.4802 23.6997 54.9302 24.1497 54.9302 24.6997C54.9302 25.2497 54.4802 25.6997 53.9302 25.6997H46.0201C45.6801 25.6997 45.3501 25.7498 45.0201 25.8398M46.0302 28.2197H53.9402C55.8802 28.2197 57.4602 26.6397 57.4602 24.6997V11.2798H66.2302V30.2097H46.0302C45.4802 30.2097 45.0302 29.7597 45.0302 29.2097C45.0302 28.6597 45.4802 28.2197 46.0302 28.2197ZM38.2601 21.1797V6.75977H53.9402C54.4902 6.75977 54.9402 7.20977 54.9402 7.75977V21.3298C54.6202 21.2298 54.2802 21.1797 53.9402 21.1797H38.2601ZM71.0101 39.2498H52.8102C52.1102 39.2498 51.5502 39.8198 51.5502 40.5098V41.5098H50.1002C49.3902 41.5098 48.7302 41.1598 48.3302 40.5598L46.2802 37.4697C44.5202 34.8397 41.0301 33.9697 38.2601 35.4497V23.6997H42.5101V29.2097C42.5101 31.1497 44.0902 32.7297 46.0302 32.7297H67.4902C68.1902 32.7297 68.7502 32.1597 68.7502 31.4697V10.0098C68.7502 9.30977 68.1802 8.74976 67.4902 8.74976H57.4602V7.74976C57.4602 5.80976 55.8802 4.22974 53.9402 4.22974H38.2601C38.1901 2.34974 36.6402 0.839844 34.7402 0.839844C32.8402 0.839844 31.2202 2.41986 31.2202 4.35986V39.2397H30.2202C28.2802 39.2397 26.7002 40.8198 26.7002 42.7598V42.8896H29.2302V42.7598C29.2302 42.2098 29.6802 41.7598 30.2302 41.7598H40.5302V39.2397H38.2701V38.6797C39.4701 37.0997 41.7302 36.7797 43.3302 37.9597C43.6702 38.2097 43.9602 38.5099 44.1902 38.8599L46.2502 41.9497C47.1102 43.2497 48.5502 44.0198 50.1102 44.0198H51.5602V55.0498H48.3002C48.1102 55.0498 47.9102 55.0997 47.7302 55.1797C47.0502 55.5297 46.3302 55.8298 45.6102 56.0898L45.4802 56.1396L46.3402 58.5098L46.4602 58.4597C47.1802 58.1997 47.8902 57.8998 48.5802 57.5698H51.5502V58.5698C51.5502 59.2698 52.1102 59.8298 52.8102 59.8298H71.0101V57.2998H54.0702V41.7498H71.0101V39.2297V39.2498Z" fill="white"/>
<path d="M58.5896 52.7998H56.0596V55.3198H58.5896V52.7998Z" fill="white"/>
<path d="M58.5896 52.7998H56.0596V55.3198H58.5896V52.7998Z" fill="white"/>
</svg>
