<svg width="69" height="69" viewBox="0 0 69 69" fill="none" xmlns="http://www.w3.org/2000/svg">
<path d="M39.0803 43.1001C38.7903 44.3301 38.0902 45.6299 36.4202 45.6299H24.5203V48.3701H36.4202C40.8302 48.3701 42.0002 44.03 42.0002 41.74C42.0002 40.98 41.3902 40.3701 40.6302 40.3701H14.3002C13.9402 40.3701 13.5803 40.51 13.3303 40.77L0.470215 53.6299L2.41022 55.5601L14.8702 43.1001H39.0803Z" fill="white"/>
<path d="M39.0803 43.1001C38.7903 44.3301 38.0902 45.6299 36.4202 45.6299H24.5203V48.3701H36.4202C40.8302 48.3701 42.0002 44.03 42.0002 41.74C42.0002 40.98 41.3902 40.3701 40.6302 40.3701H14.3002C13.9402 40.3701 13.5803 40.51 13.3303 40.77L0.470215 53.6299L2.41022 55.5601L14.8702 43.1001H39.0803Z" stroke="white" stroke-width="0.3" stroke-miterlimit="10"/>
<path d="M41.5999 56.3899L54.2399 43.75C56.0199 41.97 56.7799 39.8699 56.4399 37.6899C56.0799 35.3799 54.6599 33.8099 54.2399 33.3899C53.6999 32.8499 52.8399 32.8499 52.2999 33.3899L42.5999 43.0901L44.5399 45.03L53.14 36.4299C54.22 38.1599 53.8899 40.46 52.2999 41.82L40.0599 54.06H18.5099C18.1399 54.06 17.7999 54.1999 17.5399 54.4599L9.93994 62.06L11.8799 64L19.08 56.8H40.6299C40.9999 56.8 41.3399 56.6599 41.5999 56.3999" fill="white"/>
<path d="M41.5999 56.3899L54.2399 43.75C56.0199 41.97 56.7799 39.8699 56.4399 37.6899C56.0799 35.3799 54.6599 33.8099 54.2399 33.3899C53.6999 32.8499 52.8399 32.8499 52.2999 33.3899L42.5999 43.0901L44.5399 45.03L53.14 36.4299C54.22 38.1599 53.8899 40.46 52.2999 41.82L40.0599 54.06H18.5099C18.1399 54.06 17.7999 54.1999 17.5399 54.4599L9.93994 62.06L11.8799 64L19.08 56.8H40.6299C40.9999 56.8 41.3399 56.6599 41.5999 56.3999" stroke="white" stroke-width="0.3" stroke-miterlimit="10"/>
<path d="M34.3101 0.350098C15.5501 0.350098 0.290039 15.6101 0.290039 34.3701V34.6899H3.03009V34.3701C3.03009 17.1201 17.0601 3.09009 34.3101 3.09009C51.5601 3.09009 65.5901 17.1201 65.5901 34.3701C65.5901 51.6201 51.5601 65.6499 34.3101 65.6499H33.9901V68.3899H34.3101C53.0701 68.3899 68.3301 53.1299 68.3301 34.3799C68.3301 15.6299 53.0701 0.360107 34.3101 0.360107" fill="white"/>
<path d="M34.3101 0.350098C15.5501 0.350098 0.290039 15.6101 0.290039 34.3701V34.6899H3.03009V34.3701C3.03009 17.1201 17.0601 3.09009 34.3101 3.09009C51.5601 3.09009 65.5901 17.1201 65.5901 34.3701C65.5901 51.6201 51.5601 65.6499 34.3101 65.6499H33.9901V68.3899H34.3101C53.0701 68.3899 68.3301 53.1299 68.3301 34.3799C68.3301 15.6299 53.0701 0.360107 34.3101 0.360107" stroke="white" stroke-width="0.3" stroke-miterlimit="10"/>
<path d="M26.6201 32.99V35.73H32.2001C32.5601 35.73 32.9101 35.5901 33.1701 35.3301L43.4701 25.03V28.3601H46.2101V21.72C46.2101 20.96 45.6001 20.3501 44.8401 20.3501H37.1501V23.0901H41.5302L31.6301 32.99H26.6201Z" fill="white"/>
<path d="M26.6201 32.99V35.73H32.2001C32.5601 35.73 32.9101 35.5901 33.1701 35.3301L43.4701 25.03V28.3601H46.2101V21.72C46.2101 20.96 45.6001 20.3501 44.8401 20.3501H37.1501V23.0901H41.5302L31.6301 32.99H26.6201Z" stroke="white" stroke-width="0.3" stroke-miterlimit="10"/>
<path d="M9.78015 38.71L12.7601 35.73H20.9401V32.99H12.2001C11.8301 32.99 11.4901 33.1399 11.2301 33.3899L7.8501 36.78L9.7901 38.72L9.78015 38.71Z" fill="white"/>
<path d="M9.78015 38.71L12.7601 35.73H20.9401V32.99H12.2001C11.8301 32.99 11.4901 33.1399 11.2301 33.3899L7.8501 36.78L9.7901 38.72L9.78015 38.71Z" stroke="white" stroke-width="0.3" stroke-miterlimit="10"/>
<path d="M25.1502 32.99H22.4102V35.73H25.1502V32.99Z" fill="white"/>
<path d="M25.1502 32.99H22.4102V35.73H25.1502V32.99Z" stroke="white" stroke-width="0.3" stroke-miterlimit="10"/>
</svg>
