<svg width="65" height="75" viewBox="0 0 65 75" fill="none" xmlns="http://www.w3.org/2000/svg">
<path d="M20.4996 42.7903L28.2496 71.8303L2.63965 42.7903H20.4996Z" stroke="white" stroke-width="1.4" stroke-miterlimit="10"/>
<path d="M27.7599 26.1902H15.9398C15.3898 26.1902 14.8598 26.4103 14.4698 26.8003L2.62988 38.6401H20.6399L27.7499 26.1902H27.7599Z" stroke="white" stroke-width="1.4" stroke-miterlimit="10"/>
<path d="M32.5397 26.1902L23.3496 38.6401H40.8496L32.5397 26.1902Z" stroke="white" stroke-width="1.4" stroke-miterlimit="10"/>
<path d="M24.8 42.9001L32.54 71.9402L40.28 42.9001H24.79H24.8Z" stroke="white" stroke-width="1.4" stroke-miterlimit="10"/>
<path d="M62.4395 38.6401L50.5995 26.8003C50.2095 26.4103 49.6795 26.1902 49.1295 26.1902H37.3096L44.4196 38.6401H62.4296H62.4395Z" stroke="white" stroke-width="1.4" stroke-miterlimit="10"/>
<path d="M36.8301 71.9402L62.4401 42.6702H44.5801L36.8301 71.9402Z" stroke="white" stroke-width="1.4" stroke-miterlimit="10"/>
<path d="M34.6195 10.8203V3.14014C34.6195 1.99014 33.6896 1.07031 32.5496 1.07031C31.4096 1.07031 30.4795 2.00014 30.4795 3.14014V10.8203C30.4795 11.9703 31.4096 12.8901 32.5496 12.8901C33.6896 12.8901 34.6195 11.9603 34.6195 10.8203Z" stroke="white" stroke-width="1.4" stroke-miterlimit="10"/>
<path d="M14.7599 17.9402C15.7499 17.3702 16.0899 16.1003 15.5199 15.1103L11.6799 8.46019C11.1099 7.47019 9.83984 7.13018 8.84984 7.70018C7.85984 8.27018 7.51983 9.54026 8.08983 10.5303L11.9299 17.1802C12.5099 18.1802 13.7799 18.5102 14.7599 17.9402Z" stroke="white" stroke-width="1.4" stroke-miterlimit="10"/>
<path d="M53.1594 17.1802L56.9994 10.5303C57.5694 9.54026 57.2294 8.27018 56.2394 7.70018C55.2494 7.13018 53.9794 7.47019 53.4094 8.46019L49.5693 15.1103C48.9993 16.1003 49.3393 17.3702 50.3293 17.9402C51.3193 18.5102 52.5894 18.1802 53.1594 17.1802Z" stroke="white" stroke-width="1.4" stroke-miterlimit="10"/>
</svg>
